<svg version="1.1" viewBox="0.0 0.0 113.10498687664042 113.39632545931758" fill="none" stroke="none" stroke-linecap="square" stroke-miterlimit="10" xmlns:xlink="http://www.w3.org/1999/xlink" xmlns="http://www.w3.org/2000/svg"><clipPath id="p.0"><path d="m0 0l113.10499 0l0 113.396324l-113.10499 0l0 -113.396324z" clip-rule="nonzero"/></clipPath><g clip-path="url(#p.0)"><path fill="#000000" fill-opacity="0.0" d="m0 0l113.10499 0l0 113.396324l-113.10499 0z" fill-rule="evenodd"/><path fill="#f1c232" d="m2.2598426 20.31926l0 0c0 -9.987712 8.09664 -18.08435 18.084352 -18.08435l72.335236 0l0 0c4.7962646 0 9.396095 1.9053102 12.787567 5.296784c3.3914719 3.3914733 5.2967834 7.991299 5.2967834 12.787567l0 72.335236c0 9.987709 -8.096642 18.08435 -18.08435 18.08435l-72.335236 0c-9.987712 0 -18.084352 -8.096642 -18.084352 -18.08435z" fill-rule="evenodd"/><path stroke="#000000" stroke-width="3.0" stroke-linejoin="round" stroke-linecap="butt" d="m2.2598426 20.31926l0 0c0 -9.987712 8.09664 -18.08435 18.084352 -18.08435l72.335236 0l0 0c4.7962646 0 9.396095 1.9053102 12.787567 5.296784c3.3914719 3.3914733 5.2967834 7.991299 5.2967834 12.787567l0 72.335236c0 9.987709 -8.096642 18.08435 -18.08435 18.08435l-72.335236 0c-9.987712 0 -18.084352 -8.096642 -18.084352 -18.08435z" fill-rule="evenodd"/><path fill="#000000" d="m38.215683 78.086876l0 -48.59375l11.15625 0q3.296875 0 5.71875 0.71875q2.4375 0.71875 4.0625 2.218752q1.625 1.5 2.40625 3.8125q0.78125 2.296875 0.78125 5.421875q0 3.0 -0.75 5.1875q-0.75 2.1875 -2.28125 3.453125q-1.53125 1.265625 -3.9375 1.625q2.9375 0.65625 4.734375 2.25q1.8125 1.59375 2.671875 4.078125q0.875 2.484375 0.875 5.968746q0 3.125 -0.71875 5.703125q-0.71875 2.578125 -2.25 4.375q-1.53125 1.796875 -3.90625 2.796875q-2.359375 0.984375 -5.609375 0.984375l-12.953125 0zm6.78125 -4.859375l4.5625 0q4.5625 0 6.078125 -2.125q1.53125 -2.140625 1.53125 -6.875q0 -3.0624962 -0.8125 -5.124996q-0.796875 -2.078125 -2.578125 -3.125q-1.765625 -1.046875 -4.765625 -1.046875l-4.015625 0l0 18.296871zm0 -23.453121l4.015625 0q2.875 0 4.5 -0.8125q1.625 -0.8125 2.28125 -2.609375q0.65625 -1.8125 0.65625 -4.6875q0 -3.359375 -1.015625 -4.859375q-1.015625 -1.5 -3.1875 -1.890625q-2.15625 -0.390625 -5.625 -0.390625l-1.625 0l0 15.25z" fill-rule="nonzero"/><path fill="#000000" d="m72.218155 93.32125q-1.765625 0 -2.9375 -0.65625q-1.171875 -0.671875 -1.765625 -1.921875q-0.578125 -1.25 -0.578125 -2.953125l0 -0.734375l2.828125 0q0 0.109375 0 0.234375q0 0.125 0 0.25q0.03125 0.96875 0.21875 1.75q0.203125 0.765625 0.71875 1.21875q0.53125 0.453125 1.515625 0.453125q1.046875 0 1.578125 -0.5q0.53125 -0.5 0.71875 -1.40625q0.1875 -0.90625 0.1875 -2.078125q0 -1.703125 -0.625 -2.78125q-0.625 -1.078125 -2.203125 -1.1875q-0.078125 -0.03125 -0.203125 -0.03125q-0.125 0 -0.203125 0l0 -2.84375q0.078125 0 0.1875 0q0.109375 0 0.1875 0q1.515625 -0.0625 2.1875 -0.796875q0.671875 -0.75 0.671875 -2.484375q0 -1.46875 -0.5 -2.34375q-0.484375 -0.875 -1.953125 -0.875q-1.46875 0 -1.953125 0.96875q-0.484375 0.96875 -0.53125 2.484375q0 0.109375 0 0.234375q0 0.125 0 0.21875l-2.828125 0l0 -0.71875q0 -1.734375 0.578125 -2.953125q0.59375 -1.21875 1.78125 -1.890625q1.1875 -0.671875 2.953125 -0.671875q1.78125 0 2.953125 0.671875q1.171875 0.671875 1.75 1.90625q0.59375 1.234375 0.59375 2.96875q0 1.953125 -0.84375 3.125q-0.828125 1.171875 -2.25 1.59375q0.984375 0.296875 1.65625 1.015625q0.6875 0.71875 1.0625 1.828125q0.375 1.09375 0.375 2.5625q0 1.921875 -0.53125 3.359375q-0.53125 1.421875 -1.703125 2.203125q-1.171875 0.78125 -3.09375 0.78125z" fill-rule="nonzero"/></g></svg>