<svg version="1.1" viewBox="0.0 0.0 113.10498687664042 113.39632545931758" fill="none" stroke="none" stroke-linecap="square" stroke-miterlimit="10" xmlns:xlink="http://www.w3.org/1999/xlink" xmlns="http://www.w3.org/2000/svg"><clipPath id="p.0"><path d="m0 0l113.10499 0l0 113.396324l-113.10499 0l0 -113.396324z" clip-rule="nonzero"/></clipPath><g clip-path="url(#p.0)"><path fill="#000000" fill-opacity="0.0" d="m0 0l113.10499 0l0 113.396324l-113.10499 0z" fill-rule="evenodd"/><path fill="#f1c232" d="m2.2598426 20.31926l0 0c0 -9.987712 8.09664 -18.08435 18.084352 -18.08435l72.335236 0l0 0c4.7962646 0 9.396095 1.9053102 12.787567 5.296784c3.3914719 3.3914733 5.2967834 7.991299 5.2967834 12.787567l0 72.335236c0 9.987709 -8.096642 18.08435 -18.08435 18.08435l-72.335236 0c-9.987712 0 -18.084352 -8.096642 -18.084352 -18.08435z" fill-rule="evenodd"/><path stroke="#000000" stroke-width="3.0" stroke-linejoin="round" stroke-linecap="butt" d="m2.2598426 20.31926l0 0c0 -9.987712 8.09664 -18.08435 18.084352 -18.08435l72.335236 0l0 0c4.7962646 0 9.396095 1.9053102 12.787567 5.296784c3.3914719 3.3914733 5.2967834 7.991299 5.2967834 12.787567l0 72.335236c0 9.987709 -8.096642 18.08435 -18.08435 18.08435l-72.335236 0c-9.987712 0 -18.084352 -8.096642 -18.084352 -18.08435z" fill-rule="evenodd"/><path fill="#000000" d="m38.11236 78.086876l0 -48.59375l10.5625 0q5.390625 0 8.546875 1.65625q3.15625 1.6406269 4.5 4.937502q1.34375 3.296875 1.34375 8.21875l0 17.875q0 5.171871 -1.34375 8.718746q-1.34375 3.53125 -4.375 5.359375q-3.03125 1.828125 -8.140625 1.828125l-11.09375 0zm6.78125 -4.859375l3.84375 0q3.71875 0 5.265625 -1.4375q1.5625 -1.4375 1.890625 -4.203125q0.34375 -2.765625 0.34375 -6.656246l0 -15.78125q0 -3.78125 -0.484375 -6.125q-0.484375 -2.34375 -2.109375 -3.421875q-1.609375 -1.078125 -5.09375 -1.078125l-3.65625 0l0 38.70312z" fill-rule="nonzero"/><path fill="#000000" d="m67.04482 93.086876l0 -2.03125l5.4843674 -8.546875q0.625 -0.96875 1.140625 -1.78125q0.515625 -0.828125 0.84375 -1.75q0.34375 -0.921875 0.34375 -2.125q0 -1.484375 -0.484375 -2.34375q-0.484375 -0.859375 -1.671875 -0.859375q-1.015625 0 -1.5781174 0.5625q-0.5625 0.5625 -0.78125 1.46875q-0.203125 0.90625 -0.203125 1.953125l0 0.71875l-2.859375 0l0 -0.75q0 -1.953125 0.515625 -3.34375q0.53125 -1.40625 1.6875 -2.171875q1.15625 -0.78125 3.0781174 -0.78125q2.609375 0 3.890625 1.484375q1.28125 1.484375 1.28125 4.09375q0 1.375 -0.34375 2.421875q-0.328125 1.046875 -0.859375 1.953125q-0.53125 0.90625 -1.171875 1.859375l-4.9531174 7.5625l6.8281174 0l0 2.40625l-10.187492 0z" fill-rule="nonzero"/></g></svg>