<svg version="1.1" viewBox="0.0 0.0 113.10498687664042 113.39632545931758" fill="none" stroke="none" stroke-linecap="square" stroke-miterlimit="10" xmlns:xlink="http://www.w3.org/1999/xlink" xmlns="http://www.w3.org/2000/svg"><clipPath id="p.0"><path d="m0 0l113.10499 0l0 113.396324l-113.10499 0l0 -113.396324z" clip-rule="nonzero"/></clipPath><g clip-path="url(#p.0)"><path fill="#000000" fill-opacity="0.0" d="m0 0l113.10499 0l0 113.396324l-113.10499 0z" fill-rule="evenodd"/><path fill="#f1c232" d="m2.2598426 20.31926l0 0c0 -9.987712 8.09664 -18.08435 18.084352 -18.08435l72.335236 0l0 0c4.7962646 0 9.396095 1.9053102 12.787567 5.296784c3.3914719 3.3914733 5.2967834 7.991299 5.2967834 12.787567l0 72.335236c0 9.987709 -8.096642 18.08435 -18.08435 18.08435l-72.335236 0c-9.987712 0 -18.084352 -8.096642 -18.084352 -18.08435z" fill-rule="evenodd"/><path stroke="#000000" stroke-width="3.0" stroke-linejoin="round" stroke-linecap="butt" d="m2.2598426 20.31926l0 0c0 -9.987712 8.09664 -18.08435 18.084352 -18.08435l72.335236 0l0 0c4.7962646 0 9.396095 1.9053102 12.787567 5.296784c3.3914719 3.3914733 5.2967834 7.991299 5.2967834 12.787567l0 72.335236c0 9.987709 -8.096642 18.08435 -18.08435 18.08435l-72.335236 0c-9.987712 0 -18.084352 -8.096642 -18.084352 -18.08435z" fill-rule="evenodd"/><path fill="#000000" d="m49.450478 78.680626q-4.5625 0 -7.296875 -1.9375q-2.71875 -1.953125 -3.953125 -5.671875q-1.234375 -3.71875 -1.234375 -8.937496l0 -16.265625q0 -5.34375 1.109375 -9.09375q1.109375 -3.75 3.953125 -5.718752q2.859375 -1.984375 7.96875 -1.984375q4.546875 0 7.34375 1.53125q2.796875 1.5312519 4.046875 4.687502q1.265625 3.140625 1.265625 7.9375l0 1.796875l-6.359375 0l0 -1.5q0 -3.171875 -0.421875 -5.1875q-0.421875 -2.015625 -1.71875 -3.0q-1.28125 -0.984375 -4.046875 -0.984375q-3.0 0 -4.359375 1.375q-1.34375 1.375 -1.671875 3.75q-0.328125 2.375 -0.328125 5.375l0 18.0q0 3.4687462 0.515625 5.812496q0.515625 2.34375 1.953125 3.484375q1.4375 1.140625 4.078125 1.140625q2.640625 0 4.078125 -1.25q1.4375 -1.265625 1.96875 -3.71875q0.546875 -2.46875 0.546875 -6.140621l0 -3.359375l-6.171875 0l0 -4.796875l12.296875 0l0 24.062496l-4.265625 0l-0.65625 -5.578125q-0.953125 2.703125 -3.0 4.4375q-2.046875 1.734375 -5.640625 1.734375z" fill-rule="nonzero"/><path fill="#000000" d="m67.28483 93.086876l0 -2.03125l5.4843674 -8.546875q0.625 -0.96875 1.140625 -1.78125q0.515625 -0.828125 0.84375 -1.75q0.34375 -0.921875 0.34375 -2.125q0 -1.484375 -0.484375 -2.34375q-0.484375 -0.859375 -1.671875 -0.859375q-1.015625 0 -1.5781174 0.5625q-0.5625 0.5625 -0.78125 1.46875q-0.203125 0.90625 -0.203125 1.953125l0 0.71875l-2.859375 0l0 -0.75q0 -1.953125 0.515625 -3.34375q0.53125 -1.40625 1.6875 -2.171875q1.15625 -0.78125 3.0781174 -0.78125q2.609375 0 3.890625 1.484375q1.28125 1.484375 1.28125 4.09375q0 1.375 -0.34375 2.421875q-0.328125 1.046875 -0.859375 1.953125q-0.53125 0.90625 -1.171875 1.859375l-4.9531174 7.5625l6.8281174 0l0 2.40625l-10.187492 0z" fill-rule="nonzero"/></g></svg>