<svg version="1.1" viewBox="0.0 0.0 113.10498687664042 113.39632545931758" fill="none" stroke="none" stroke-linecap="square" stroke-miterlimit="10" xmlns:xlink="http://www.w3.org/1999/xlink" xmlns="http://www.w3.org/2000/svg"><clipPath id="p.0"><path d="m0 0l113.10499 0l0 113.396324l-113.10499 0l0 -113.396324z" clip-rule="nonzero"/></clipPath><g clip-path="url(#p.0)"><path fill="#000000" fill-opacity="0.0" d="m0 0l113.10499 0l0 113.396324l-113.10499 0z" fill-rule="evenodd"/><path fill="#f1c232" d="m2.2598426 20.31926l0 0c0 -9.987712 8.09664 -18.08435 18.084352 -18.08435l72.335236 0l0 0c4.7962646 0 9.396095 1.9053102 12.787567 5.296784c3.3914719 3.3914733 5.2967834 7.991299 5.2967834 12.787567l0 72.335236c0 9.987709 -8.096642 18.08435 -18.08435 18.08435l-72.335236 0c-9.987712 0 -18.084352 -8.096642 -18.084352 -18.08435z" fill-rule="evenodd"/><path stroke="#000000" stroke-width="3.0" stroke-linejoin="round" stroke-linecap="butt" d="m2.2598426 20.31926l0 0c0 -9.987712 8.09664 -18.08435 18.084352 -18.08435l72.335236 0l0 0c4.7962646 0 9.396095 1.9053102 12.787567 5.296784c3.3914719 3.3914733 5.2967834 7.991299 5.2967834 12.787567l0 72.335236c0 9.987709 -8.096642 18.08435 -18.08435 18.08435l-72.335236 0c-9.987712 0 -18.084352 -8.096642 -18.084352 -18.08435z" fill-rule="evenodd"/><path fill="#000000" d="m37.02571 78.086876l0 -48.59375l6.78125 0l0 21.000002l12.484375 0l0 -21.000002l6.765625 0l0 48.59375l-6.765625 0l0 -22.734371l-12.484375 0l0 22.734371l-6.78125 0z" fill-rule="nonzero"/><path fill="#000000" d="m74.23256 93.086876l0 -5.78125l-6.265625 0l0 -2.984375l5.625 -12.828125l3.359375 0l0 13.28125l2.421875 0l0 2.53125l-2.421875 0l0 5.78125l-2.71875 0zm-3.515625 -8.3125l3.515625 0l0 -9.8125l-3.515625 9.8125z" fill-rule="nonzero"/></g></svg>