<svg version="1.1" viewBox="0.0 0.0 113.10498687664042 113.39632545931758" fill="none" stroke="none" stroke-linecap="square" stroke-miterlimit="10" xmlns:xlink="http://www.w3.org/1999/xlink" xmlns="http://www.w3.org/2000/svg"><clipPath id="p.0"><path d="m0 0l113.10499 0l0 113.396324l-113.10499 0l0 -113.396324z" clip-rule="nonzero"/></clipPath><g clip-path="url(#p.0)"><path fill="#000000" fill-opacity="0.0" d="m0 0l113.10499 0l0 113.396324l-113.10499 0z" fill-rule="evenodd"/><path fill="#f1c232" d="m2.2598426 20.31926l0 0c0 -9.987712 8.09664 -18.08435 18.084352 -18.08435l72.335236 0l0 0c4.7962646 0 9.396095 1.9053102 12.787567 5.296784c3.3914719 3.3914733 5.2967834 7.991299 5.2967834 12.787567l0 72.335236c0 9.987709 -8.096642 18.08435 -18.08435 18.08435l-72.335236 0c-9.987712 0 -18.084352 -8.096642 -18.084352 -18.08435z" fill-rule="evenodd"/><path stroke="#000000" stroke-width="3.0" stroke-linejoin="round" stroke-linecap="butt" d="m2.2598426 20.31926l0 0c0 -9.987712 8.09664 -18.08435 18.084352 -18.08435l72.335236 0l0 0c4.7962646 0 9.396095 1.9053102 12.787567 5.296784c3.3914719 3.3914733 5.2967834 7.991299 5.2967834 12.787567l0 72.335236c0 9.987709 -8.096642 18.08435 -18.08435 18.08435l-72.335236 0c-9.987712 0 -18.084352 -8.096642 -18.084352 -18.08435z" fill-rule="evenodd"/><path fill="#000000" d="m39.099014 78.086876l0 -48.59375l6.78125 0l0 22.906252l11.15625 -22.906252l6.296875 0l-9.59375 21.406252l11.15625 27.187496l-6.59375 0l-9.296875 -22.796871l-3.125 5.640625l0 17.156246l-6.78125 0z" fill-rule="nonzero"/><path fill="#000000" d="m71.502106 93.305626q-1.953125 0 -3.109375 -0.75q-1.140625 -0.75 -1.640625 -2.15625q-0.484375 -1.421875 -0.484375 -3.359375l2.859375 0q0 0.953125 0.15625 1.875q0.15625 0.921875 0.671875 1.53125q0.53125 0.59375 1.59375 0.59375q1.171875 0 1.671875 -0.671875q0.515625 -0.6875 0.640625 -1.84375q0.140625 -1.171875 0.140625 -2.640625q0 -1.453125 -0.171875 -2.484375q-0.15625 -1.03125 -0.65625 -1.578125q-0.5 -0.546875 -1.59375 -0.546875q-0.890625 0 -1.5 0.546875q-0.609375 0.546875 -0.90625 1.25l-2.421875 0l0 -11.578125l9.296875 0l0 2.859375l-6.71875 0l-0.1875 5.96875q0.546875 -0.5625 1.328125 -0.875q0.78125 -0.328125 1.796875 -0.328125q1.765625 0 2.765625 0.828125q1.0 0.828125 1.40625 2.265625q0.40625 1.4375 0.40625 3.296875q0 1.65625 -0.234375 3.09375q-0.234375 1.421875 -0.84375 2.484375q-0.59375 1.046875 -1.640625 1.640625q-1.03125 0.578125 -2.625 0.578125z" fill-rule="nonzero"/></g></svg>