<svg version="1.1" viewBox="0.0 0.0 113.10498687664042 113.39632545931758" fill="none" stroke="none" stroke-linecap="square" stroke-miterlimit="10" xmlns:xlink="http://www.w3.org/1999/xlink" xmlns="http://www.w3.org/2000/svg"><clipPath id="p.0"><path d="m0 0l113.10499 0l0 113.396324l-113.10499 0l0 -113.396324z" clip-rule="nonzero"/></clipPath><g clip-path="url(#p.0)"><path fill="#000000" fill-opacity="0.0" d="m0 0l113.10499 0l0 113.396324l-113.10499 0z" fill-rule="evenodd"/><path fill="#f1c232" d="m2.2598426 20.31926l0 0c0 -9.987712 8.09664 -18.08435 18.084352 -18.08435l72.335236 0l0 0c4.7962646 0 9.396095 1.9053102 12.787567 5.296784c3.3914719 3.3914733 5.2967834 7.991299 5.2967834 12.787567l0 72.335236c0 9.987709 -8.096642 18.08435 -18.08435 18.08435l-72.335236 0c-9.987712 0 -18.084352 -8.096642 -18.084352 -18.08435z" fill-rule="evenodd"/><path stroke="#000000" stroke-width="3.0" stroke-linejoin="round" stroke-linecap="butt" d="m2.2598426 20.31926l0 0c0 -9.987712 8.09664 -18.08435 18.084352 -18.08435l72.335236 0l0 0c4.7962646 0 9.396095 1.9053102 12.787567 5.296784c3.3914719 3.3914733 5.2967834 7.991299 5.2967834 12.787567l0 72.335236c0 9.987709 -8.096642 18.08435 -18.08435 18.08435l-72.335236 0c-9.987712 0 -18.084352 -8.096642 -18.084352 -18.08435z" fill-rule="evenodd"/><path fill="#000000" d="m51.26712 78.63375q-4.921875 0 -7.859375 -1.921875q-2.9375 -1.921875 -4.203125 -5.484375q-1.265625 -3.578125 -1.265625 -8.374996l0 -18.421875q0 -4.796875 1.28125 -8.25q1.296875 -3.453125 4.203125 -5.281252q2.921875 -1.828125 7.84375 -1.828125q4.921875 0 7.796875 1.859375q2.875 1.8593769 4.15625 5.281252q1.296875 3.421875 1.296875 8.21875l0 18.46875q0 4.749996 -1.296875 8.296871q-1.28125 3.53125 -4.15625 5.484375q-2.875 1.953125 -7.796875 1.953125zm0 -5.34375q2.703125 0 4.078125 -1.109375q1.375 -1.109375 1.859375 -3.125q0.484375 -2.015625 0.484375 -4.703125l0 -21.312496q0 -2.6875 -0.484375 -4.640625q-0.484375 -1.953125 -1.859375 -3.0q-1.375 -1.046875 -4.078125 -1.046875q-2.703125 0 -4.109375 1.046875q-1.40625 1.046875 -1.890625 3.0q-0.484375 1.953125 -0.484375 4.640625l0 21.312496q0 2.6875 0.484375 4.703125q0.484375 2.015625 1.890625 3.125q1.40625 1.109375 4.109375 1.109375z" fill-rule="nonzero"/><path fill="#000000" d="m71.96646 93.086876l0 -17.859375q-0.03125 0.03125 -0.609375 0.171875q-0.5625 0.125 -1.28125 0.265625q-0.71875 0.125 -1.28125 0.234375q-0.5625 0.09375 -0.59375 0.09375l0 -2.15625q0.453125 -0.109375 1.046875 -0.28125q0.609375 -0.1875 1.234375 -0.453125q0.625 -0.28125 1.1875 -0.671875q0.578125 -0.40625 0.984375 -0.9375l2.15625 0l0 21.59375l-2.84375 0z" fill-rule="nonzero"/></g></svg>