<svg version="1.1" viewBox="0.0 0.0 113.10498687664042 113.39632545931758" fill="none" stroke="none" stroke-linecap="square" stroke-miterlimit="10" xmlns:xlink="http://www.w3.org/1999/xlink" xmlns="http://www.w3.org/2000/svg"><clipPath id="p.0"><path d="m0 0l113.10499 0l0 113.396324l-113.10499 0l0 -113.396324z" clip-rule="nonzero"/></clipPath><g clip-path="url(#p.0)"><path fill="#000000" fill-opacity="0.0" d="m0 0l113.10499 0l0 113.396324l-113.10499 0z" fill-rule="evenodd"/><path fill="#f1c232" d="m2.2598426 20.31926l0 0c0 -9.987712 8.09664 -18.08435 18.084352 -18.08435l72.335236 0l0 0c4.7962646 0 9.396095 1.9053102 12.787567 5.296784c3.3914719 3.3914733 5.2967834 7.991299 5.2967834 12.787567l0 72.335236c0 9.987709 -8.096642 18.08435 -18.08435 18.08435l-72.335236 0c-9.987712 0 -18.084352 -8.096642 -18.084352 -18.08435z" fill-rule="evenodd"/><path stroke="#000000" stroke-width="3.0" stroke-linejoin="round" stroke-linecap="butt" d="m2.2598426 20.31926l0 0c0 -9.987712 8.09664 -18.08435 18.084352 -18.08435l72.335236 0l0 0c4.7962646 0 9.396095 1.9053102 12.787567 5.296784c3.3914719 3.3914733 5.2967834 7.991299 5.2967834 12.787567l0 72.335236c0 9.987709 -8.096642 18.08435 -18.08435 18.08435l-72.335236 0c-9.987712 0 -18.084352 -8.096642 -18.084352 -18.08435z" fill-rule="evenodd"/><path fill="#000000" d="m39.535683 78.086876l0 -48.59375l12.0625 0q4.375 0 6.984375 1.59375q2.609375 1.5781269 3.8125 4.578127q1.203125 3.0 1.203125 7.265625q0 3.84375 -1.359375 6.65625q-1.34375 2.8125 -3.984375 4.34375q-2.640625 1.53125 -6.59375 1.53125l-5.34375 0l0 22.624996l-6.78125 0zm6.78125 -27.484371l3.125 0q2.9375 0 4.609375 -0.65625q1.6875 -0.65625 2.40625 -2.296875q0.71875 -1.65625 0.71875 -4.65625q0 -3.484375 -0.515625 -5.34375q-0.5 -1.859375 -2.125 -2.578125q-1.625 -0.71875 -5.046875 -0.71875l-3.171875 0l0 16.25z" fill-rule="nonzero"/><path fill="#000000" d="m70.898155 93.32125q-1.765625 0 -2.9375 -0.65625q-1.171875 -0.671875 -1.765625 -1.921875q-0.578125 -1.25 -0.578125 -2.953125l0 -0.734375l2.828125 0q0 0.109375 0 0.234375q0 0.125 0 0.25q0.03125 0.96875 0.21875 1.75q0.203125 0.765625 0.71875 1.21875q0.53125 0.453125 1.515625 0.453125q1.0468674 0 1.5781174 -0.5q0.53125 -0.5 0.71875 -1.40625q0.1875 -0.90625 0.1875 -2.078125q0 -1.703125 -0.625 -2.78125q-0.625 -1.078125 -2.2031174 -1.1875q-0.078125 -0.03125 -0.203125 -0.03125q-0.125 0 -0.203125 0l0 -2.84375q0.078125 0 0.1875 0q0.109375 0 0.1875 0q1.5156174 -0.0625 2.1874924 -0.796875q0.671875 -0.75 0.671875 -2.484375q0 -1.46875 -0.5 -2.34375q-0.484375 -0.875 -1.9531174 -0.875q-1.46875 0 -1.953125 0.96875q-0.484375 0.96875 -0.53125 2.484375q0 0.109375 0 0.234375q0 0.125 0 0.21875l-2.828125 0l0 -0.71875q0 -1.734375 0.578125 -2.953125q0.59375 -1.21875 1.78125 -1.890625q1.1875 -0.671875 2.953125 -0.671875q1.7812424 0 2.9531174 0.671875q1.171875 0.671875 1.75 1.90625q0.59375 1.234375 0.59375 2.96875q0 1.953125 -0.84375 3.125q-0.828125 1.171875 -2.25 1.59375q0.984375 0.296875 1.65625 1.015625q0.6875 0.71875 1.0625 1.828125q0.375 1.09375 0.375 2.5625q0 1.921875 -0.53125 3.359375q-0.53125 1.421875 -1.703125 2.203125q-1.171875 0.78125 -3.0937424 0.78125z" fill-rule="nonzero"/></g></svg>