<svg version="1.1" viewBox="0.0 0.0 113.10498687664042 113.39632545931758" fill="none" stroke="none" stroke-linecap="square" stroke-miterlimit="10" xmlns:xlink="http://www.w3.org/1999/xlink" xmlns="http://www.w3.org/2000/svg"><clipPath id="p.0"><path d="m0 0l113.10499 0l0 113.396324l-113.10499 0l0 -113.396324z" clip-rule="nonzero"/></clipPath><g clip-path="url(#p.0)"><path fill="#000000" fill-opacity="0.0" d="m0 0l113.10499 0l0 113.396324l-113.10499 0z" fill-rule="evenodd"/><path fill="#f1c232" d="m2.2598426 20.31926l0 0c0 -9.987712 8.09664 -18.08435 18.084352 -18.08435l72.335236 0l0 0c4.7962646 0 9.396095 1.9053102 12.787567 5.296784c3.3914719 3.3914733 5.2967834 7.991299 5.2967834 12.787567l0 72.335236c0 9.987709 -8.096642 18.08435 -18.08435 18.08435l-72.335236 0c-9.987712 0 -18.084352 -8.096642 -18.084352 -18.08435z" fill-rule="evenodd"/><path stroke="#000000" stroke-width="3.0" stroke-linejoin="round" stroke-linecap="butt" d="m2.2598426 20.31926l0 0c0 -9.987712 8.09664 -18.08435 18.084352 -18.08435l72.335236 0l0 0c4.7962646 0 9.396095 1.9053102 12.787567 5.296784c3.3914719 3.3914733 5.2967834 7.991299 5.2967834 12.787567l0 72.335236c0 9.987709 -8.096642 18.08435 -18.08435 18.08435l-72.335236 0c-9.987712 0 -18.084352 -8.096642 -18.084352 -18.08435z" fill-rule="evenodd"/><path fill="#000000" d="m52.278366 78.63375q-4.1875 0 -6.984375 -1.796875q-2.796875 -1.8125 -4.234375 -4.984375q-1.4375 -3.1875 -1.671875 -7.390625l6.0 -1.6093712q0.171875 2.5781212 0.796875 4.984371q0.640625 2.390625 2.078125 3.921875q1.4375 1.53125 4.015625 1.53125q2.640625 0 3.984375 -1.46875q1.359375 -1.46875 1.359375 -4.234375q0 -3.296875 -1.5 -5.296871q-1.5 -2.015625 -3.78125 -4.0625l-8.15625 -7.203125q-2.40625 -2.09375 -3.546875 -4.578125q-1.140625 -2.5 -1.140625 -6.15625q0 -5.34375 3.0625 -8.28125q3.0625 -2.937502 8.34375 -2.937502q2.875 0 5.0625 0.75q2.203125 0.75 3.671875 2.312502q1.46875 1.546875 2.328125 3.921875q0.875 2.375 1.171875 5.546875l-5.75 1.5625q-0.1875 -2.390625 -0.734375 -4.40625q-0.53125 -2.015625 -1.890625 -3.234375q-1.34375 -1.234375 -3.859375 -1.234375q-2.515625 0 -3.9375 1.359375q-1.40625 1.34375 -1.40625 3.984375q0 2.21875 0.75 3.65625q0.75 1.4375 2.4375 2.9375l8.21875 7.203125q2.765625 2.390625 4.859375 5.734375q2.09375 3.328125 2.09375 7.874996q0 3.609375 -1.5 6.21875q-1.5 2.609375 -4.109375 4.0q-2.609375 1.375 -6.03125 1.375z" fill-rule="nonzero"/><path fill="#000000" d="m69.986465 93.086876l0 -17.859375q-0.03125 0.03125 -0.609375 0.171875q-0.5625 0.125 -1.28125 0.265625q-0.71875 0.125 -1.28125 0.234375q-0.5625 0.09375 -0.59375 0.09375l0 -2.15625q0.453125 -0.109375 1.046875 -0.28125q0.609375 -0.1875 1.234375 -0.453125q0.625 -0.28125 1.1875 -0.671875q0.578125 -0.40625 0.984375 -0.9375l2.15625 0l0 21.59375l-2.84375 0z" fill-rule="nonzero"/></g></svg>