<svg version="1.1" viewBox="0.0 0.0 113.10498687664042 113.39632545931758" fill="none" stroke="none" stroke-linecap="square" stroke-miterlimit="10" xmlns:xlink="http://www.w3.org/1999/xlink" xmlns="http://www.w3.org/2000/svg"><clipPath id="p.0"><path d="m0 0l113.10499 0l0 113.396324l-113.10499 0l0 -113.396324z" clip-rule="nonzero"/></clipPath><g clip-path="url(#p.0)"><path fill="#000000" fill-opacity="0.0" d="m0 0l113.10499 0l0 113.396324l-113.10499 0z" fill-rule="evenodd"/><path fill="#f1c232" d="m2.2598426 20.31926l0 0c0 -9.987712 8.09664 -18.08435 18.084352 -18.08435l72.335236 0l0 0c4.7962646 0 9.396095 1.9053102 12.787567 5.296784c3.3914719 3.3914733 5.2967834 7.991299 5.2967834 12.787567l0 72.335236c0 9.987709 -8.096642 18.08435 -18.08435 18.08435l-72.335236 0c-9.987712 0 -18.084352 -8.096642 -18.084352 -18.08435z" fill-rule="evenodd"/><path stroke="#000000" stroke-width="3.0" stroke-linejoin="round" stroke-linecap="butt" d="m2.2598426 20.31926l0 0c0 -9.987712 8.09664 -18.08435 18.084352 -18.08435l72.335236 0l0 0c4.7962646 0 9.396095 1.9053102 12.787567 5.296784c3.3914719 3.3914733 5.2967834 7.991299 5.2967834 12.787567l0 72.335236c0 9.987709 -8.096642 18.08435 -18.08435 18.08435l-72.335236 0c-9.987712 0 -18.084352 -8.096642 -18.084352 -18.08435z" fill-rule="evenodd"/><path fill="#000000" d="m47.968987 78.086876l0 -43.562496l-8.21875 0l0 -5.031252l22.96875 0l0 5.031252l-7.96875 0l0 43.562496l-6.78125 0z" fill-rule="nonzero"/><path fill="#000000" d="m68.18647 93.086876l0 -17.859375q-0.03125 0.03125 -0.609375 0.171875q-0.5625 0.125 -1.28125 0.265625q-0.71875 0.125 -1.28125 0.234375q-0.5625 0.09375 -0.59375 0.09375l0 -2.15625q0.453125 -0.109375 1.046875 -0.28125q0.609375 -0.1875 1.234375 -0.453125q0.625 -0.28125 1.1875 -0.671875q0.578125 -0.40625 0.984375 -0.9375l2.15625 0l0 21.59375l-2.84375 0z" fill-rule="nonzero"/></g></svg>