<svg version="1.1" viewBox="0.0 0.0 113.10498687664042 113.39632545931758" fill="none" stroke="none" stroke-linecap="square" stroke-miterlimit="10" xmlns:xlink="http://www.w3.org/1999/xlink" xmlns="http://www.w3.org/2000/svg"><clipPath id="p.0"><path d="m0 0l113.10499 0l0 113.396324l-113.10499 0l0 -113.396324z" clip-rule="nonzero"/></clipPath><g clip-path="url(#p.0)"><path fill="#000000" fill-opacity="0.0" d="m0 0l113.10499 0l0 113.396324l-113.10499 0z" fill-rule="evenodd"/><path fill="#f1c232" d="m2.2598426 20.31926l0 0c0 -9.987712 8.09664 -18.08435 18.084352 -18.08435l72.335236 0l0 0c4.7962646 0 9.396095 1.9053102 12.787567 5.296784c3.3914719 3.3914733 5.2967834 7.991299 5.2967834 12.787567l0 72.335236c0 9.987709 -8.096642 18.08435 -18.08435 18.08435l-72.335236 0c-9.987712 0 -18.084352 -8.096642 -18.084352 -18.08435z" fill-rule="evenodd"/><path stroke="#000000" stroke-width="3.0" stroke-linejoin="round" stroke-linecap="butt" d="m2.2598426 20.31926l0 0c0 -9.987712 8.09664 -18.08435 18.084352 -18.08435l72.335236 0l0 0c4.7962646 0 9.396095 1.9053102 12.787567 5.296784c3.3914719 3.3914733 5.2967834 7.991299 5.2967834 12.787567l0 72.335236c0 9.987709 -8.096642 18.08435 -18.08435 18.08435l-72.335236 0c-9.987712 0 -18.084352 -8.096642 -18.084352 -18.08435z" fill-rule="evenodd"/><path fill="#000000" d="m36.182472 78.086876l10.140625 -25.437496l-9.96875 -23.156252l6.3125 0l7.375 17.156252l6.71875 -17.156252l6.296875 0l-10.203125 23.687502l10.6875 24.906246l-6.296875 0l-7.921875 -18.296871l-6.84375 18.296871l-6.296875 0z" fill-rule="nonzero"/><path fill="#000000" d="m70.97744 93.32125q-1.9375 0 -3.109375 -0.765625q-1.171875 -0.78125 -1.703125 -2.203125q-0.515625 -1.421875 -0.515625 -3.34375q0 -1.09375 0.1875 -1.921875q0.1875 -0.828125 0.546875 -1.453125q0.359375 -0.625 0.84375 -1.09375q0.5 -0.46875 1.09375 -0.828125q-1.0625 -0.734375 -1.734375 -1.890625q-0.671875 -1.15625 -0.671875 -2.9375q0 -1.703125 0.53125 -2.953125q0.546875 -1.265625 1.671875 -1.9375q1.140625 -0.6875 2.859375 -0.6875q1.7343674 0 2.8437424 0.6875q1.109375 0.671875 1.640625 1.9375q0.53125 1.25 0.53125 2.953125q0 1.8125 -0.65625 2.953125q-0.640625 1.140625 -1.734375 1.875q0.578125 0.359375 1.0625 0.828125q0.5 0.46875 0.859375 1.09375q0.359375 0.625 0.5625 1.453125q0.203125 0.828125 0.203125 1.921875q0 1.921875 -0.53125 3.34375q-0.515625 1.421875 -1.671875 2.203125q-1.15625 0.765625 -3.1093674 0.765625zm0 -2.265625q1.0468674 0 1.6093674 -0.53125q0.5625 -0.53125 0.75 -1.4375q0.203125 -0.90625 0.203125 -2.03125q0 -1.0 -0.234375 -1.890625q-0.21875 -0.90625 -0.78125 -1.46875q-0.546875 -0.578125 -1.5468674 -0.578125q-0.984375 0 -1.5625 0.5625q-0.5625 0.5625 -0.8125 1.453125q-0.234375 0.890625 -0.234375 1.921875q0 1.125 0.21875 2.03125q0.21875 0.90625 0.78125 1.4375q0.578125 0.53125 1.609375 0.53125zm0 -10.65625q0.9218674 -0.03125 1.3749924 -0.5625q0.46875 -0.53125 0.65625 -1.359375q0.1875 -0.84375 0.1875 -1.75q0 -1.34375 -0.484375 -2.265625q-0.46875 -0.9375 -1.7343674 -0.9375q-1.25 0 -1.765625 0.9375q-0.5 0.921875 -0.5 2.265625q0 0.90625 0.1875 1.75q0.1875 0.828125 0.671875 1.359375q0.5 0.53125 1.40625 0.5625z" fill-rule="nonzero"/></g></svg>