<svg version="1.1" viewBox="0.0 0.0 1295.015748031496 107.0" fill="none" stroke="none" stroke-linecap="square" stroke-miterlimit="10" xmlns:xlink="http://www.w3.org/1999/xlink" xmlns="http://www.w3.org/2000/svg"><clipPath id="p.0"><path d="m0 0l1295.0157 0l0 107.0l-1295.0157 0l0 -107.0z" clip-rule="nonzero"/></clipPath><g clip-path="url(#p.0)"><path fill="#000000" fill-opacity="0.0" d="m0 0l1295.0157 0l0 107.0l-1295.0157 0z" fill-rule="evenodd"/><path fill="#8fb1e6" d="m1073.2521 47.375328l188.5354 0l0 21.102364l-188.5354 0z" fill-rule="evenodd"/><path stroke="#e9e9e9" stroke-width="8.0" stroke-linejoin="round" stroke-linecap="butt" d="m1073.2521 47.375328l188.5354 0l0 21.102364l-188.5354 0z" fill-rule="evenodd"/><path fill="#bbe8ab" d="m815.0231 47.40663l258.11023 0l0 21.102364l-258.11023 0z" fill-rule="evenodd"/><path stroke="#e9e9e9" stroke-width="8.0" stroke-linejoin="round" stroke-linecap="butt" d="m815.0231 47.40663l258.11023 0l0 21.102364l-258.11023 0z" fill-rule="evenodd"/><path fill="#ffffff" d="m557.11615 47.376534l258.11023 0l0 21.102364l-258.11023 0z" fill-rule="evenodd"/><path stroke="#e9e9e9" stroke-width="8.0" stroke-linejoin="round" stroke-linecap="butt" d="m557.11615 47.376534l258.11023 0l0 21.102364l-258.11023 0z" fill-rule="evenodd"/><path fill="#ffe8a1" d="m299.0649 47.40663l258.11026 0l0 21.102364l-258.11026 0z" fill-rule="evenodd"/><path stroke="#e9e9e9" stroke-width="8.0" stroke-linejoin="round" stroke-linecap="butt" d="m299.0649 47.40663l258.11026 0l0 21.102364l-258.11026 0z" fill-rule="evenodd"/><path fill="#f6b26b" d="m41.006176 47.40663l258.11026 0l0 21.102364l-258.11026 0z" fill-rule="evenodd"/><path stroke="#e9e9e9" stroke-width="8.0" stroke-linejoin="round" stroke-linecap="butt" d="m41.006176 47.40663l258.11026 0l0 21.102364l-258.11026 0z" fill-rule="evenodd"/><path fill="#9e90c4" d="m1247.1837 13.43832l18.078735 0l0 88.97638l-18.078735 0z" fill-rule="evenodd"/><path stroke="#e9e9e9" stroke-width="8.0" stroke-linejoin="round" stroke-linecap="butt" d="m1247.1837 13.43832l18.078735 0l0 88.97638l-18.078735 0z" fill-rule="evenodd"/><path fill="#f6b26b" d="m4.7847767 13.543307l83.65355 0l0 88.97638l-83.65355 0z" fill-rule="evenodd"/><path stroke="#e9e9e9" stroke-width="8.0" stroke-linejoin="round" stroke-linecap="butt" d="m4.7847767 13.543307l83.65355 0l0 88.97638l-83.65355 0z" fill-rule="evenodd"/><path fill="#ffe8a1" d="m257.09973 13.543307l83.653564 0l0 88.97638l-83.653564 0z" fill-rule="evenodd"/><path stroke="#e9e9e9" stroke-width="8.0" stroke-linejoin="round" stroke-linecap="butt" d="m257.09973 13.543307l83.653564 0l0 88.97638l-83.653564 0z" fill-rule="evenodd"/><path fill="#ffffff" d="m509.4134 13.543307l83.653564 0l0 88.97638l-83.653564 0z" fill-rule="evenodd"/><path stroke="#e9e9e9" stroke-width="8.0" stroke-linejoin="round" stroke-linecap="butt" d="m509.4134 13.543307l83.653564 0l0 88.97638l-83.653564 0z" fill-rule="evenodd"/><path fill="#bbe8ab" d="m761.72833 13.43832l83.653564 0l0 88.97638l-83.653564 0z" fill-rule="evenodd"/><path stroke="#e9e9e9" stroke-width="8.0" stroke-linejoin="round" stroke-linecap="butt" d="m761.72833 13.43832l83.653564 0l0 88.97638l-83.653564 0z" fill-rule="evenodd"/><path fill="#8fb1e6" d="m1014.0446 13.543307l83.6535 0l0 88.97638l-83.6535 0z" fill-rule="evenodd"/><path stroke="#e9e9e9" stroke-width="8.0" stroke-linejoin="round" stroke-linecap="butt" d="m1014.0446 13.543307l83.6535 0l0 88.97638l-83.6535 0z" fill-rule="evenodd"/></g></svg>