<svg version="1.1" viewBox="0.0 0.0 113.10498687664042 113.39632545931758" fill="none" stroke="none" stroke-linecap="square" stroke-miterlimit="10" xmlns:xlink="http://www.w3.org/1999/xlink" xmlns="http://www.w3.org/2000/svg"><clipPath id="p.0"><path d="m0 0l113.10499 0l0 113.396324l-113.10499 0l0 -113.396324z" clip-rule="nonzero"/></clipPath><g clip-path="url(#p.0)"><path fill="#000000" fill-opacity="0.0" d="m0 0l113.10499 0l0 113.396324l-113.10499 0z" fill-rule="evenodd"/><path fill="#000000" d="m1.355643 56.698162l0 0c0 -30.484379 24.712473 -55.19685 55.19685 -55.19685l0 0c14.639111 0 28.678646 5.815366 39.030064 16.166782c10.351418 10.351418 16.166786 24.390953 16.166786 39.030067l0 0c0 30.484379 -24.712471 55.19685 -55.19685 55.19685l0 0c-30.484379 0 -55.19685 -24.712471 -55.19685 -55.19685z" fill-rule="evenodd"/><path stroke="#000000" stroke-width="1.0" stroke-linejoin="round" stroke-linecap="butt" d="m1.355643 56.698162l0 0c0 -30.484379 24.712473 -55.19685 55.19685 -55.19685l0 0c14.639111 0 28.678646 5.815366 39.030064 16.166782c10.351418 10.351418 16.166786 24.390953 16.166786 39.030067l0 0c0 30.484379 -24.712471 55.19685 -55.19685 55.19685l0 0c-30.484379 0 -55.19685 -24.712471 -55.19685 -55.19685z" fill-rule="evenodd"/><path fill="#000000" fill-opacity="0.0" d="m0 7.3385825l55.874016 0l0 46.866142l-55.874016 0z" fill-rule="evenodd"/><path fill="#ffffff" d="m23.44405 38.09858l0.359375 -1.71875l6.21875 -7.281248q0.6875 -0.8125 1.28125 -1.515625q0.609375 -0.703125 1.046875 -1.484375q0.453125 -0.78125 0.671875 -1.796875q0.265625 -1.265625 0.015625 -1.984375q-0.25 -0.734375 -1.265625 -0.734375q-0.859375 0 -1.4375 0.484375q-0.578125 0.46875 -0.921875 1.234375q-0.34375 0.765625 -0.53125 1.65625l-0.140625 0.609375l-2.4375 0l0.140625 -0.625q0.359375 -1.65625 1.046875 -2.84375q0.703125 -1.203125 1.828125 -1.859375q1.125 -0.65625 2.765625 -0.65625q2.21875 0 3.03125 1.265625q0.828125 1.25 0.34375 3.46875q-0.25 1.1875 -0.71875 2.078125q-0.46875 0.875 -1.09375 1.65625q-0.609375 0.765625 -1.328125 1.578125l-5.578125 6.437498l5.796875 0l-0.4375 2.03125l-8.65625 0z" fill-rule="nonzero"/><path fill="#000000" fill-opacity="0.0" d="m26.552504 2.5879266l60.0 0l0 104.566925l-60.0 0z" fill-rule="evenodd"/><path fill="#ffffff" d="m68.083755 41.931675q4.65625 4.65625 4.65625 13.71875q0 7.203125 -2.265625 11.671879q-1.59375 3.0625 -3.65625 4.828125q-2.0625 1.765625 -5.34375 2.609375q-3.265625 0.828125 -8.390625 0.828125l-15.265625 0l0 -3.671875l5.203125 0l0 -30.796879l-5.203125 0l0 -3.65625l16.9375 0q4.921875 0 7.984375 1.109375q3.078125 1.09375 5.34375 3.359375zm-2.140625 25.593754q1.53125 -2.203125 2.328125 -5.171879q0.8125 -2.96875 0.8125 -6.15625q0 -4.0 -1.109375 -7.234375q-1.09375 -3.234375 -2.953125 -4.84375q-2.078125 -1.71875 -4.25 -2.359375q-2.15625 -0.640625 -6.6875 -0.640625l-7.46875 0l0 30.796879l7.671875 0q4.0625 0 7.0625 -1.09375q3.0 -1.09375 4.59375 -3.296875z" fill-rule="nonzero"/></g></svg>