<svg version="1.1" viewBox="0.0 0.0 118.20997375328083 108.64041994750656" fill="none" stroke="none" stroke-linecap="square" stroke-miterlimit="10" xmlns:xlink="http://www.w3.org/1999/xlink" xmlns="http://www.w3.org/2000/svg"><clipPath id="p.0"><path d="m0 0l118.20998 0l0 108.64042l-118.20998 0l0 -108.64042z" clip-rule="nonzero"/></clipPath><g clip-path="url(#p.0)"><path fill="#000000" fill-opacity="0.0" d="m0 0l118.20998 0l0 108.64042l-118.20998 0z" fill-rule="evenodd"/><path fill="#000000" d="m116.50656 8.709968l0 91.220474l-93.205246 0l-23.301311 -45.610237l23.301311 -45.610237z" fill-rule="evenodd"/><path fill="#000000" fill-opacity="0.0" d="m12.950131 21.482939l94.92913 0l0 62.677162l-94.92913 0z" fill-rule="evenodd"/><path fill="#ffffff" d="m36.31034 68.882935l6.890625 -32.406246l7.046875 0q3.59375 0 5.453125 1.109375q1.875 1.09375 2.296875 3.296875q0.4375 2.203125 -0.265625 5.484375l-2.53125 11.921875q-0.734375 3.4375 -2.140625 5.796871q-1.390625 2.359375 -3.671875 3.578125q-2.28125 1.21875 -5.671875 1.21875l-7.40625 0zm5.21875 -3.234375l2.546875 0q2.484375 0 3.71875 -0.953125q1.25 -0.9687462 1.859375 -2.8124962q0.609375 -1.84375 1.171875 -4.4375l2.234375 -10.515625q0.53125 -2.53125 0.53125 -4.078125q0.015625 -1.5625 -0.90625 -2.28125q-0.921875 -0.734375 -3.234375 -0.734375l-2.4375 0l-5.484375 25.812496zm15.861237 3.234375l6.890625 -32.406246l12.5625 0l-0.71875 3.359375l-8.03125 0l-2.28125 10.734375l6.515625 0l-0.671875 3.1875l-6.515625 0l-2.53125 11.890621l8.109375 0l-0.6875 3.234375l-12.640625 0zm16.279984 0l6.8906326 -32.406246l4.53125 0l-6.203125 29.171871l8.265625 0l-0.6875 3.234375l-12.796883 0z" fill-rule="nonzero"/></g></svg>