<svg version="1.1" viewBox="0.0 0.0 146.38057742782152 100.0" fill="none" stroke="none" stroke-linecap="square" stroke-miterlimit="10" xmlns:xlink="http://www.w3.org/1999/xlink" xmlns="http://www.w3.org/2000/svg"><clipPath id="p.0"><path d="m0 0l146.38058 0l0 100.0l-146.38058 0l0 -100.0z" clip-rule="nonzero"/></clipPath><g clip-path="url(#p.0)"><path fill="#000000" fill-opacity="0.0" d="m0 0l146.38058 0l0 100.0l-146.38058 0z" fill-rule="evenodd"/><path fill="#000000" d="m0 50.0l0 0c0 -24.23095 32.750195 -43.874016 73.149605 -43.874016l0 0c40.399414 0 73.149605 19.643066 73.149605 43.874016l0 0c0 24.23095 -32.75019 43.874016 -73.149605 43.874016l0 0c-40.39941 0 -73.149605 -19.643066 -73.149605 -43.874016z" fill-rule="evenodd"/><path fill="#000000" fill-opacity="0.0" d="m7.506562E-5 18.362206l138.80315 0l0 63.27559l-138.80315 0z" fill-rule="evenodd"/><path fill="#ffffff" d="m29.835676 65.7622l6.890627 -32.406246l7.046875 0q3.59375 0 5.453125 1.109375q1.875 1.09375 2.296875 3.296875q0.4375 2.203125 -0.265625 5.484375l-2.53125 11.921875q-0.734375 3.4375 -2.140625 5.796875q-1.390625 2.359375 -3.671875 3.5781212q-2.28125 1.21875 -5.671875 1.21875l-7.406252 0zm5.218752 -3.2343712l2.546875 0q2.484375 0 3.71875 -0.953125q1.25 -0.96875 1.859375 -2.8125q0.609375 -1.84375 1.171875 -4.4375l2.234375 -10.515625q0.53125 -2.53125 0.53125 -4.078125q0.015625 -1.5625 -0.90625 -2.28125q-0.921875 -0.734375 -3.234375 -0.734375l-2.4375 0l-5.484375 25.8125zm24.064362 3.5937462q-3.28125 0 -4.96875 -1.28125q-1.6875 -1.2812462 -2.015625 -3.6562462q-0.328125 -2.375 0.34375 -5.578125l2.609375 -12.28125q0.6875 -3.203125 2.03125 -5.5q1.34375 -2.296875 3.546875 -3.515625q2.203125 -1.234375 5.484375 -1.234375q3.28125 0 4.9375 1.25q1.65625 1.234375 2.03125 3.515625q0.375 2.28125 -0.3125 5.484375l-2.609375 12.3125q-0.671875 3.171875 -2.046875 5.53125q-1.359375 2.359375 -3.5625 3.6562462q-2.1875 1.296875 -5.46875 1.296875zm0.765625 -3.5624962q1.796875 0 2.875 -0.734375q1.078125 -0.75 1.671875 -2.078125q0.609375 -1.34375 1.0 -3.140625l3.015625 -14.203125q0.375 -1.796875 0.328125 -3.09375q-0.03125 -1.3125 -0.8125 -2.0q-0.765625 -0.703125 -2.5625 -0.703125q-1.796875 0 -2.890625 0.703125q-1.078125 0.6875 -1.6875 2.0q-0.59375 1.296875 -0.96875 3.09375l-3.015625 14.203125q-0.390625 1.796875 -0.359375 3.140625q0.046875 1.328125 0.828125 2.078125q0.78125 0.734375 2.578125 0.734375zm12.591232 3.2031212l6.890625 -32.406246l3.078125 0l4.625 21.53125l4.578125 -21.53125l3.765625 0l-6.890625 32.406246l-2.875 0l-4.625 -22.124996l-4.703125 22.124996l-3.84375 0zm21.11998 0l6.890625 -32.406246l12.5625 0l-0.71875 3.359375l-8.03125 0l-2.28125 10.734375l6.515625 0l-0.671875 3.1875l-6.515625 0l-2.53125 11.890625l8.109375 0l-0.6875 3.2343712l-12.640625 0z" fill-rule="nonzero"/></g></svg>