<svg version="1.1" viewBox="0.0 0.0 168.79265091863516 100.0" fill="none" stroke="none" stroke-linecap="square" stroke-miterlimit="10" xmlns:xlink="http://www.w3.org/1999/xlink" xmlns="http://www.w3.org/2000/svg"><clipPath id="p.0"><path d="m0 0l168.79265 0l0 100.0l-168.79265 0l0 -100.0z" clip-rule="nonzero"/></clipPath><g clip-path="url(#p.0)"><path fill="#000000" fill-opacity="0.0" d="m0 0l168.79265 0l0 100.0l-168.79265 0z" fill-rule="evenodd"/><path fill="#000000" d="m0 50.0l0 0c0 -24.23095 37.784348 -43.874016 84.3937 -43.874016l0 0c46.609352 0 84.3937 19.643066 84.3937 43.874016l0 0c0 24.23095 -37.784348 43.874016 -84.3937 43.874016l0 0c-46.609352 0 -84.3937 -19.643066 -84.3937 -43.874016z" fill-rule="evenodd"/><path fill="#000000" fill-opacity="0.0" d="m10.165429 18.362206l138.80315 0l0 63.27559l-138.80315 0z" fill-rule="evenodd"/><path fill="#ffffff" d="m30.76768 66.16845q-3.03125 0 -4.578125 -1.296875q-1.53125 -1.3124962 -1.828125 -3.7812462q-0.296875 -2.484375 0.453125 -5.96875l2.296875 -10.84375q0.765625 -3.5625 2.03125 -6.0625q1.28125 -2.5 3.453123 -3.8125q2.1875 -1.328125 5.578125 -1.328125q3.046875 0 4.6875 1.03125q1.640625 1.015625 2.03125 3.125q0.40625 2.09375 -0.28125 5.296875l-0.25 1.1875l-4.25 0l0.21875 -1.0q0.4375 -2.109375 0.4375 -3.453125q0.015625 -1.34375 -0.703125 -2.0q-0.71875 -0.65625 -2.546875 -0.65625q-2.0 0 -3.109375 0.921875q-1.09375 0.921875 -1.65625 2.5q-0.546875 1.578125 -0.9843731 3.578125l-2.546875 12.0q-0.484375 2.3125 -0.484375 3.875q0.015625 1.5625 0.8125 2.328125q0.8125 0.75 2.562498 0.75q1.765625 0 2.890625 -0.828125q1.140625 -0.84375 1.84375 -2.484375q0.71875 -1.640625 1.234375 -4.078125l0.484375 -2.25l-4.125 0l0.671875 -3.203125l8.203125 0l-3.40625 16.046871l-2.84375 0l0.359375 -3.7187462q-1.03125 1.796875 -2.640625 2.9687462q-1.609375 1.15625 -4.015623 1.15625zm14.024977 -0.40625l6.890625 -32.406246l4.4375 0l-6.890625 32.406246l-4.4375 0zm15.310623 0l-0.34375 -32.406246l4.234375 0l0.046875 23.890625l9.953125 -23.890625l4.125 0l-14.046875 32.406246l-3.96875 0zm14.559357 0l6.890625 -32.406246l12.5625 0l-0.71875 3.359375l-8.03125 0l-2.28125 10.734375l6.515625 0l-0.671875 3.1875l-6.515625 0l-2.53125 11.890625l8.109375 0l-0.6875 3.2343712l-12.640625 0zm33.721222 0.359375q-3.515625 0 -5.109375 -1.390625q-1.578125 -1.4062462 -1.71875 -3.9374962q-0.140625 -2.546875 0.59375 -5.953125l4.5625 -21.484375l4.328125 0l-4.609375 21.6875q-0.4375 2.078125 -0.53125 3.796875q-0.078125 1.71875 0.640625 2.71875q0.734375 1.0 2.609375 1.0q1.921875 0 3.046875 -1.0q1.140625 -1.0 1.78125 -2.71875q0.65625 -1.71875 1.09375 -3.796875l4.609375 -21.6875l4.28125 0l-4.5625 21.484375q-0.734375 3.40625 -1.953125 5.953125q-1.21875 2.53125 -3.375 3.9374962q-2.15625 1.390625 -5.6875 1.390625zm13.438736 -0.359375l6.8906326 -32.406246l8.046875 0q2.921875 0 4.421875 1.0625q1.515625 1.0625 1.890625 3.0625q0.390625 2.0 -0.21875 4.84375q-0.546875 2.5625 -1.84375 4.4375q-1.296875 1.875 -3.28125 2.90625q-1.984375 1.015625 -4.625 1.015625l-3.546875 0l-3.2031326 15.078121l-4.53125 0zm8.421883 -18.312496l2.078125 0q1.953125 0 3.15625 -0.4375q1.21875 -0.453125 1.9375 -1.546875q0.71875 -1.109375 1.140625 -3.109375q0.5 -2.3125 0.421875 -3.546875q-0.078125 -1.25 -1.0625 -1.71875q-0.96875 -0.484375 -3.25 -0.484375l-2.109375 0l-2.3125 10.84375z" fill-rule="nonzero"/></g></svg>