<svg version="1.1" viewBox="0.0 0.0 256.501312335958 100.0" fill="none" stroke="none" stroke-linecap="square" stroke-miterlimit="10" xmlns:xlink="http://www.w3.org/1999/xlink" xmlns="http://www.w3.org/2000/svg"><clipPath id="p.0"><path d="m0 0l256.5013 0l0 100.0l-256.5013 0l0 -100.0z" clip-rule="nonzero"/></clipPath><g clip-path="url(#p.0)"><path fill="#000000" fill-opacity="0.0" d="m0 0l256.5013 0l0 100.0l-256.5013 0z" fill-rule="evenodd"/><path fill="#000000" d="m0 20.750948l0 0c0 -8.077144 6.5478196 -14.624964 14.624965 -14.624964l227.254 0c3.8787842 0 7.598709 1.5408401 10.341415 4.283553c2.7427216 2.742713 4.283554 6.4626303 4.283554 10.341411l0 58.498108c0 8.077141 -6.547821 14.624962 -14.6249695 14.624962l-227.254 0c-8.077145 0 -14.624965 -6.547821 -14.624965 -14.624962z" fill-rule="evenodd"/><path fill="#000000" fill-opacity="0.0" d="m62.959316 18.3621l130.58267 0l0 63.275597l-130.58267 0z" fill-rule="evenodd"/><path fill="#ffffff" d="m89.771324 66.16835q-3.03125 0 -4.578125 -1.296875q-1.53125 -1.3125 -1.828125 -3.78125q-0.296875 -2.484375 0.453125 -5.96875l2.296875 -10.84375q0.765625 -3.5625 2.03125 -6.0625q1.28125 -2.5 3.453125 -3.8125q2.1875 -1.328125 5.578125 -1.328125q3.046875 0 4.6875 1.03125q1.640625 1.015625 2.03125 3.125q0.40625 2.09375 -0.28125 5.296875l-0.25 1.1875l-4.25 0l0.21875 -1.0q0.4375 -2.109375 0.4375 -3.453125q0.015625 -1.34375 -0.703125 -2.0q-0.71875 -0.65625 -2.546875 -0.65625q-2.0 0 -3.109375 0.921875q-1.09375 0.921875 -1.65625 2.5q-0.546875 1.578125 -0.984375 3.578125l-2.546875 12.0q-0.484375 2.3125 -0.484375 3.875q0.015625 1.5625 0.8125 2.328125q0.8125 0.75 2.5625 0.75q1.765625 0 2.890625 -0.828125q1.140625 -0.84375 1.84375 -2.484375q0.71875 -1.640625 1.234375 -4.078125l0.484375 -2.25l-4.125 0l0.671875 -3.203125l8.203125 0l-3.40625 16.046875l-2.84375 0l0.359375 -3.71875q-1.03125 1.796875 -2.640625 2.96875q-1.609375 1.15625 -4.015625 1.15625zm22.056229 -0.046875q-3.515625 0 -5.109375 -1.390625q-1.578125 -1.40625 -1.71875 -3.9375q-0.140625 -2.546875 0.59375 -5.953125l4.5625 -21.484375l4.328125 0l-4.609375 21.6875q-0.4375 2.078125 -0.53125 3.796875q-0.078125 1.71875 0.640625 2.71875q0.734375 1.0 2.609375 1.0q1.921875 0 3.046875 -1.0q1.140625 -1.0 1.78125 -2.71875q0.65625 -1.71875 1.09375 -3.796875l4.609375 -21.6875l4.2812576 0l-4.5625076 21.484375q-0.734375 3.40625 -1.953125 5.953125q-1.21875 2.53125 -3.375 3.9375q-2.15625 1.390625 -5.6875 1.390625zm13.438736 -0.359375l6.8906326 -32.40625l12.5625 0l-0.71875 3.359375l-8.03125 0l-2.28125 10.734375l6.515625 0l-0.671875 3.1875l-6.515625 0l-2.53125 11.890625l8.109375 0l-0.6875 3.234375l-12.640633 0zm23.842491 0.359375q-2.796875 0 -4.40625 -1.203125q-1.59375 -1.203125 -2.109375 -3.3125q-0.515625 -2.125 -0.078125 -4.921875l4.234375 -1.078125q-0.234375 1.71875 -0.171875 3.328125q0.078125 1.59375 0.828125 2.609375q0.75 1.015625 2.46875 1.015625q1.765625 0 2.859375 -0.96875q1.109375 -0.984375 1.5 -2.828125q0.46875 -2.203125 -0.25 -3.53125q-0.703125 -1.34375 -1.9375 -2.703125l-4.40625 -4.8125q-1.328125 -1.390625 -1.734375 -3.046875q-0.390625 -1.671875 0.125 -4.109375q0.75 -3.5625 3.203125 -5.515625q2.46875 -1.96875 5.984375 -1.96875q1.921875 0 3.265625 0.5q1.359375 0.5 2.125 1.546875q0.765625 1.046875 1.0 2.625q0.25 1.578125 0 3.703125l-4.0625 1.03125q0.203125 -1.59375 0.125 -2.9375q-0.0625 -1.34375 -0.796875 -2.15625q-0.71875 -0.828125 -2.40625 -0.828125q-1.671875 0 -2.796875 0.90625q-1.125 0.890625 -1.5 2.65625q-0.3125 1.484375 -0.03125 2.453125q0.296875 0.953125 1.203125 1.953125l4.46875 4.796875q1.5 1.59375 2.421875 3.8125q0.9375 2.21875 0.28125 5.265625q-0.515625 2.40625 -1.890625 4.140625q-1.359375 1.734375 -3.296875 2.65625q-1.9375 0.921875 -4.21875 0.921875zm18.919983 0q-2.796875 0 -4.40625 -1.203125q-1.59375 -1.203125 -2.109375 -3.3125q-0.515625 -2.125 -0.078125 -4.921875l4.234375 -1.078125q-0.234375 1.71875 -0.171875 3.328125q0.078125 1.59375 0.828125 2.609375q0.75 1.015625 2.46875 1.015625q1.765625 0 2.859375 -0.96875q1.109375 -0.984375 1.5 -2.828125q0.46875 -2.203125 -0.25 -3.53125q-0.703125 -1.34375 -1.9375 -2.703125l-4.40625 -4.8125q-1.328125 -1.390625 -1.734375 -3.046875q-0.390625 -1.671875 0.125 -4.109375q0.75 -3.5625 3.203125 -5.515625q2.46875 -1.96875 5.984375 -1.96875q1.921875 0 3.265625 0.5q1.359375 0.5 2.125 1.546875q0.765625 1.046875 1.0 2.625q0.25 1.578125 0 3.703125l-4.0625 1.03125q0.203125 -1.59375 0.125 -2.9375q-0.0625 -1.34375 -0.796875 -2.15625q-0.71875 -0.828125 -2.40625 -0.828125q-1.671875 0 -2.796875 0.90625q-1.125 0.890625 -1.5 2.65625q-0.3125 1.484375 -0.03125 2.453125q0.296875 0.953125 1.203125 1.953125l4.46875 4.796875q1.5 1.59375 2.421875 3.8125q0.9375 2.21875 0.28125 5.265625q-0.515625 2.40625 -1.890625 4.140625q-1.359375 1.734375 -3.296875 2.65625q-1.9375 0.921875 -4.21875 0.921875z" fill-rule="nonzero"/></g></svg>