<svg version="1.1" viewBox="0.0 0.0 113.10498687664042 113.39632545931758" fill="none" stroke="none" stroke-linecap="square" stroke-miterlimit="10" xmlns:xlink="http://www.w3.org/1999/xlink" xmlns="http://www.w3.org/2000/svg"><clipPath id="p.0"><path d="m0 0l113.10499 0l0 113.396324l-113.10499 0l0 -113.396324z" clip-rule="nonzero"/></clipPath><g clip-path="url(#p.0)"><path fill="#000000" fill-opacity="0.0" d="m0 0l113.10499 0l0 113.396324l-113.10499 0z" fill-rule="evenodd"/><path fill="#000000" d="m1.355643 56.698162l0 0c0 -30.484379 24.712473 -55.19685 55.19685 -55.19685l0 0c14.639111 0 28.678646 5.815366 39.030064 16.166782c10.351418 10.351418 16.166786 24.390953 16.166786 39.030067l0 0c0 30.484379 -24.712471 55.19685 -55.19685 55.19685l0 0c-30.484379 0 -55.19685 -24.712471 -55.19685 -55.19685z" fill-rule="evenodd"/><path stroke="#000000" stroke-width="1.0" stroke-linejoin="round" stroke-linecap="butt" d="m1.355643 56.698162l0 0c0 -30.484379 24.712473 -55.19685 55.19685 -55.19685l0 0c14.639111 0 28.678646 5.815366 39.030064 16.166782c10.351418 10.351418 16.166786 24.390953 16.166786 39.030067l0 0c0 30.484379 -24.712471 55.19685 -55.19685 55.19685l0 0c-30.484379 0 -55.19685 -24.712471 -55.19685 -55.19685z" fill-rule="evenodd"/><path fill="#000000" fill-opacity="0.0" d="m0 7.3385825l55.874016 0l0 46.866142l-55.874016 0z" fill-rule="evenodd"/><path fill="#ffffff" d="m28.69991 38.09858l1.046875 -4.921875l-5.328125 0l0.53125 -2.531248l7.109375 -10.890625l2.859375 0l-2.40625 11.28125l2.0625 0l-0.453125 2.140623l-2.0625 0l-1.046875 4.921875l-2.3125 0zm-1.5 -7.062498l3.0 0l1.78125 -8.34375l-4.78125 8.34375z" fill-rule="nonzero"/><path fill="#000000" fill-opacity="0.0" d="m26.552504 2.5879266l60.0 0l0 104.566925l-60.0 0z" fill-rule="evenodd"/><path fill="#ffffff" d="m51.677505 41.119175l-5.265625 0l0 13.9375l18.265625 0l0 -13.9375l-5.203125 0l0 -3.65625l14.0 0l0 3.65625l-5.1875 0l0 30.796879l5.1875 0l0 3.671875l-14.0 0l0 -3.671875l5.203125 0l0 -13.187504l-18.265625 0l0 13.187504l5.265625 0l0 3.671875l-14.125 0l0 -3.671875l5.265625 0l0 -30.796879l-5.265625 0l0 -3.65625l14.125 0l0 3.65625z" fill-rule="nonzero"/></g></svg>