<svg version="1.1" viewBox="0.0 0.0 113.10498687664042 113.39632545931758" fill="none" stroke="none" stroke-linecap="square" stroke-miterlimit="10" xmlns:xlink="http://www.w3.org/1999/xlink" xmlns="http://www.w3.org/2000/svg"><clipPath id="p.0"><path d="m0 0l113.10499 0l0 113.396324l-113.10499 0l0 -113.396324z" clip-rule="nonzero"/></clipPath><g clip-path="url(#p.0)"><path fill="#000000" fill-opacity="0.0" d="m0 0l113.10499 0l0 113.396324l-113.10499 0z" fill-rule="evenodd"/><path fill="#000000" d="m1.355643 56.698162l0 0c0 -30.484379 24.712473 -55.19685 55.19685 -55.19685l0 0c14.639111 0 28.678646 5.815366 39.030064 16.166782c10.351418 10.351418 16.166786 24.390953 16.166786 39.030067l0 0c0 30.484379 -24.712471 55.19685 -55.19685 55.19685l0 0c-30.484379 0 -55.19685 -24.712471 -55.19685 -55.19685z" fill-rule="evenodd"/><path stroke="#000000" stroke-width="1.0" stroke-linejoin="round" stroke-linecap="butt" d="m1.355643 56.698162l0 0c0 -30.484379 24.712473 -55.19685 55.19685 -55.19685l0 0c14.639111 0 28.678646 5.815366 39.030064 16.166782c10.351418 10.351418 16.166786 24.390953 16.166786 39.030067l0 0c0 30.484379 -24.712471 55.19685 -55.19685 55.19685l0 0c-30.484379 0 -55.19685 -24.712471 -55.19685 -55.19685z" fill-rule="evenodd"/><path fill="#000000" fill-opacity="0.0" d="m0 7.3385825l55.874016 0l0 46.866142l-55.874016 0z" fill-rule="evenodd"/><path fill="#ffffff" d="m27.99796 38.28608q-1.65625 0 -2.484375 -0.640625q-0.828125 -0.640625 -1.0 -1.828125q-0.171875 -1.203125 0.1875 -2.859375l2.421875 0q-0.171875 0.8125 -0.203125 1.59375q-0.015625 0.78125 0.3125 1.296875q0.328125 0.5 1.234375 0.5q1.0 0 1.546875 -0.578125q0.5625 -0.578125 0.875 -1.5625q0.328125 -0.984375 0.59375 -2.218748q0.265625 -1.25 0.3125 -2.125q0.046875 -0.875 -0.296875 -1.328125q-0.328125 -0.46875 -1.25 -0.46875q-0.75 0 -1.375 0.46875q-0.609375 0.453125 -0.984375 1.046875l-2.0625 0l2.09375 -9.828125l7.90625 0l-0.515625 2.421875l-5.703125 0l-1.234375 5.0625q0.546875 -0.46875 1.265625 -0.734375q0.734375 -0.28125 1.59375 -0.28125q1.5 0 2.1875 0.703125q0.703125 0.703125 0.796875 1.9375q0.09375 1.21875 -0.234375 2.796875q-0.3125 1.4062481 -0.78125 2.624998q-0.453125 1.203125 -1.15625 2.109375q-0.703125 0.890625 -1.703125 1.390625q-0.984375 0.5 -2.34375 0.5z" fill-rule="nonzero"/><path fill="#000000" fill-opacity="0.0" d="m26.552504 2.5879266l60.0 0l0 104.566925l-60.0 0z" fill-rule="evenodd"/><path fill="#ffffff" d="m53.81813 41.119175l-5.265625 0l0 15.9375l16.0 -15.9375l-3.9375 0l0 -3.65625l13.328125 0l0 3.65625l-4.859375 0l-12.53125 12.671875q4.53125 5.46875 7.359375 9.796875q2.828125 4.328129 4.765625 8.328129l7.671875 0l0 3.671875l-9.875 0q-2.328125 -4.9375 -5.203125 -9.53125q-2.859375 -4.593754 -7.1875 -10.062504l-5.53125 5.53125l0 10.390629l5.328125 0l0 3.671875l-14.265625 0l0 -3.671875l5.34375 0l0 -30.796879l-5.34375 0l0 -3.65625l14.203125 0l0 3.65625z" fill-rule="nonzero"/></g></svg>