<svg version="1.1" viewBox="0.0 0.0 113.10498687664042 113.39632545931758" fill="none" stroke="none" stroke-linecap="square" stroke-miterlimit="10" xmlns:xlink="http://www.w3.org/1999/xlink" xmlns="http://www.w3.org/2000/svg"><clipPath id="p.0"><path d="m0 0l113.10499 0l0 113.396324l-113.10499 0l0 -113.396324z" clip-rule="nonzero"/></clipPath><g clip-path="url(#p.0)"><path fill="#000000" fill-opacity="0.0" d="m0 0l113.10499 0l0 113.396324l-113.10499 0z" fill-rule="evenodd"/><path fill="#000000" d="m1.355643 56.698162l0 0c0 -30.484379 24.712473 -55.19685 55.19685 -55.19685l0 0c14.639111 0 28.678646 5.815366 39.030064 16.166782c10.351418 10.351418 16.166786 24.390953 16.166786 39.030067l0 0c0 30.484379 -24.712471 55.19685 -55.19685 55.19685l0 0c-30.484379 0 -55.19685 -24.712471 -55.19685 -55.19685z" fill-rule="evenodd"/><path stroke="#000000" stroke-width="1.0" stroke-linejoin="round" stroke-linecap="butt" d="m1.355643 56.698162l0 0c0 -30.484379 24.712473 -55.19685 55.19685 -55.19685l0 0c14.639111 0 28.678646 5.815366 39.030064 16.166782c10.351418 10.351418 16.166786 24.390953 16.166786 39.030067l0 0c0 30.484379 -24.712471 55.19685 -55.19685 55.19685l0 0c-30.484379 0 -55.19685 -24.712471 -55.19685 -55.19685z" fill-rule="evenodd"/><path fill="#000000" fill-opacity="0.0" d="m0 7.3385825l55.874016 0l0 46.866142l-55.874016 0z" fill-rule="evenodd"/><path fill="#ffffff" d="m27.877254 38.301704q-1.5 0 -2.375 -0.5625q-0.859375 -0.5625 -1.140625 -1.625q-0.265625 -1.078125 0.03125 -2.53125l0.140625 -0.609375l2.40625 0q-0.03125 0.09375 -0.046875 0.203125q-0.015625 0.09375 -0.046875 0.203125q-0.15625 0.828125 -0.125 1.484375q0.03125 0.65625 0.390625 1.046875q0.359375 0.375 1.203125 0.375q0.890625 0 1.421875 -0.421875q0.546875 -0.421875 0.859375 -1.1875q0.328125 -0.765625 0.546875 -1.765625q0.296875 -1.4531231 -0.046875 -2.359373q-0.328125 -0.921875 -1.65625 -1.015625q-0.046875 -0.03125 -0.15625 -0.03125q-0.09375 0 -0.171875 0l0.515625 -2.421875q0.078125 0 0.15625 0q0.09375 0 0.171875 0q1.28125 -0.046875 1.984375 -0.671875q0.71875 -0.640625 1.03125 -2.109375q0.265625 -1.25 0 -1.984375q-0.265625 -0.75 -1.5 -0.75q-1.25 0 -1.828125 0.828125q-0.578125 0.8125 -0.90625 2.109375q-0.015625 0.09375 -0.046875 0.203125q-0.015625 0.09375 -0.03125 0.1875l-2.40625 0l0.125 -0.609375q0.3125 -1.484375 1.03125 -2.515625q0.71875 -1.046875 1.84375 -1.609375q1.140625 -0.578125 2.640625 -0.578125q1.515625 0 2.375 0.578125q0.875 0.5625 1.15625 1.625q0.28125 1.046875 -0.03125 2.515625q-0.359375 1.65625 -1.28125 2.65625q-0.921875 0.984375 -2.203125 1.359375q0.796875 0.25 1.234375 0.859375q0.4375 0.609375 0.5625 1.546875q0.125 0.9375 -0.140625 2.187498q-0.359375 1.625 -1.078125 2.84375q-0.703125 1.21875 -1.84375 1.890625q-1.140625 0.65625 -2.765625 0.65625z" fill-rule="nonzero"/><path fill="#000000" fill-opacity="0.0" d="m26.552504 2.5879266l60.0 0l0 104.566925l-60.0 0z" fill-rule="evenodd"/><path fill="#ffffff" d="m55.615005 60.056675l8.671875 -22.59375l9.65625 0l0 3.65625l-3.0625 0l0 30.796879l3.125 0l0 3.671875l-10.65625 0l0 -3.671875l3.859375 0l0 -30.796879l-0.734375 0l-9.53125 25.062504l-2.796875 0l-9.734375 -25.062504l-0.59375 0l0 30.796879l4.0625 0l0 3.671875l-10.921875 0l0 -3.671875l3.1875 0l0 -30.796879l-3.1875 0l0 -3.65625l9.859375 0l8.796875 22.59375z" fill-rule="nonzero"/></g></svg>