<svg version="1.1" viewBox="0.0 0.0 112.22572178477691 108.36220472440945" fill="none" stroke="none" stroke-linecap="square" stroke-miterlimit="10" xmlns:xlink="http://www.w3.org/1999/xlink" xmlns="http://www.w3.org/2000/svg"><clipPath id="p.0"><path d="m0 0l112.22572 0l0 108.362206l-112.22572 0l0 -108.362206z" clip-rule="nonzero"/></clipPath><g clip-path="url(#p.0)"><path fill="#000000" fill-opacity="0.0" d="m0 0l112.22572 0l0 108.362206l-112.22572 0z" fill-rule="evenodd"/><path fill="#ffffff" d="m2.8372703 54.181103l0 0c0 -29.423296 23.852293 -53.275593 53.275593 -53.275593l0 0c14.129562 0 27.68042 5.612948 37.67153 15.604059c9.991112 9.991112 15.604057 23.541965 15.604057 37.67153l0 0c0 29.423298 -23.852295 53.275593 -53.27559 53.275593l0 0c-29.423298 0 -53.275593 -23.852295 -53.275593 -53.275593z" fill-rule="evenodd"/><path fill="#000000" fill-opacity="0.0" d="m28.254593 4.086614l55.716537 0l0 100.18897l-55.716537 0z" fill-rule="evenodd"/><path fill="#000000" d="m52.00139 63.742863q0.0625 -3.875 0.875 -6.109375q0.8125 -2.25 3.3125 -4.984375l4.265625 -4.40625q2.734375 -3.078125 2.734375 -6.625q0 -3.421875 -1.796875 -5.359375q-1.78125 -1.9375 -5.203125 -1.9375q-3.3125 0 -5.328125 1.765625q-2.015625 1.75 -2.015625 4.703125l-6.03125 0q0.0625 -5.265625 3.75 -8.5q3.703125 -3.249998 9.625 -3.249998q6.15625 0 9.59375 3.312498q3.4375 3.296875 3.4375 9.0625q0 5.703125 -5.28125 11.234375l-3.546875 3.515625q-2.375 2.625 -2.375 7.578125l-6.015625 0zm-0.265625 10.312504q0 -1.453125 0.890625 -2.453125q0.90625 -1.0 2.65625 -1.0q1.765625 0 2.671875 1.0q0.90625 1.0 0.90625 2.46875q0 1.453125 -0.90625 2.421875q-0.90625 0.953125 -2.671875 0.953125q-1.75 0 -2.65625 -0.953125q-0.890625 -0.96875 -0.890625 -2.4375z" fill-rule="nonzero"/></g></svg>