<svg version="1.1" viewBox="0.0 0.0 112.22572178477691 108.36220472440945" fill="none" stroke="none" stroke-linecap="square" stroke-miterlimit="10" xmlns:xlink="http://www.w3.org/1999/xlink" xmlns="http://www.w3.org/2000/svg"><clipPath id="p.0"><path d="m0 0l112.22572 0l0 108.362206l-112.22572 0l0 -108.362206z" clip-rule="nonzero"/></clipPath><g clip-path="url(#p.0)"><path fill="#000000" fill-opacity="0.0" d="m0 0l112.22572 0l0 108.362206l-112.22572 0z" fill-rule="evenodd"/><path fill="#ffffff" d="m2.8372703 54.181103l0 0c0 -29.423296 23.852293 -53.275593 53.275593 -53.275593l0 0c14.129562 0 27.68042 5.612948 37.67153 15.604059c9.991112 9.991112 15.604057 23.541965 15.604057 37.67153l0 0c0 29.423298 -23.852295 53.275593 -53.27559 53.275593l0 0c-29.423298 0 -53.275593 -23.852295 -53.275593 -53.275593z" fill-rule="evenodd"/><path fill="#000000" fill-opacity="0.0" d="m28.254593 4.086614l55.716537 0l0 100.18897l-55.716537 0z" fill-rule="evenodd"/><path fill="#000000" d="m50.82704 62.539738q0 -4.5625 1.09375 -7.265625q1.109375 -2.703125 4.046875 -5.3125q2.953125 -2.625 3.921875 -4.265625q0.984375 -1.640625 0.984375 -3.46875q0 -5.5 -5.0625 -5.5q-2.421875 0 -3.875 1.484375q-1.4375 1.484375 -1.5 4.078125l-9.4375 0q0.0625 -6.21875 4.015625 -9.734375q3.953125 -3.515623 10.796875 -3.515623q6.890625 0 10.703125 3.343748q3.8125 3.328125 3.8125 9.421875q0 2.765625 -1.25 5.234375q-1.234375 2.453125 -4.328125 5.4375l-2.625 2.515625q-2.484375 2.375 -2.84375 5.5625l-0.125 1.984375l-8.328125 0zm-0.953125 9.984379q0 -2.171875 1.484375 -3.578125q1.484375 -1.421875 3.796875 -1.421875q2.3125 0 3.78125 1.421875q1.484375 1.40625 1.484375 3.578125q0 2.15625 -1.453125 3.5625q-1.4375 1.390625 -3.8125 1.390625q-2.375 0 -3.828125 -1.390625q-1.453125 -1.40625 -1.453125 -3.5625z" fill-rule="nonzero"/></g></svg>