<svg version="1.1" viewBox="0.0 0.0 179.30971128608923 100.0" fill="none" stroke="none" stroke-linecap="square" stroke-miterlimit="10" xmlns:xlink="http://www.w3.org/1999/xlink" xmlns="http://www.w3.org/2000/svg"><clipPath id="p.0"><path d="m0 0l179.30971 0l0 100.0l-179.30971 0l0 -100.0z" clip-rule="nonzero"/></clipPath><g clip-path="url(#p.0)"><path fill="#000000" fill-opacity="0.0" d="m0 0l179.30971 0l0 100.0l-179.30971 0z" fill-rule="evenodd"/><path fill="#91d296" d="m0 16.551512l0 0c0 -9.141148 7.4103646 -16.551512 16.551512 -16.551512l146.20406 0c4.38974 0 8.599686 1.7438151 11.70369 4.8478255c3.1040192 3.1040106 4.847824 7.313953 4.847824 11.703686l0 66.20406c0 9.141144 -7.4103546 16.551506 -16.551514 16.551506l-146.20406 0c-9.141148 0 -16.551512 -7.4103622 -16.551512 -16.551506z" fill-rule="evenodd"/><path fill="#000000" fill-opacity="0.0" d="m15.3412075 11.979003l136.56694 0l0 63.27559l-136.56694 0z" fill-rule="evenodd"/><path fill="#ffffff" d="m52.98742 72.179l9.1875 -43.203125l4.109375 0l6.15625 28.703127l6.109375 -28.703127l5.015625 0l-9.1875 43.203125l-3.84375 0l-6.15625 -29.484375l-6.265625 29.484375l-5.125 0zm39.09471 0.484375q-4.375 0 -6.625 -1.703125q-2.25 -1.71875 -2.703125 -4.890625q-0.4375 -3.171875 0.46875 -7.4375l3.484375 -16.375q0.90625 -4.265625 2.703125 -7.328125q1.796875 -3.062502 4.734375 -4.687502q2.9375 -1.625 7.3125 -1.625q4.359375 0 6.5625 1.65625q2.21875 1.640625 2.71875 4.687502q0.5 3.03125 -0.40625 7.296875l-3.5 16.4375q-0.890625 4.203125 -2.703125 7.359375q-1.8125 3.140625 -4.75 4.875q-2.9375 1.734375 -7.296875 1.734375zm1.015625 -4.75q2.390625 0 3.828125 -0.984375q1.4375 -0.984375 2.234375 -2.765625q0.8125 -1.796875 1.328125 -4.203125l4.03125 -18.921875q0.5 -2.40625 0.4375 -4.140625q-0.046875 -1.734375 -1.078125 -2.65625q-1.03125 -0.9375 -3.421875 -0.9375q-2.40625 0 -3.859375 0.9375q-1.4375 0.921875 -2.25 2.65625q-0.796875 1.734375 -1.296875 4.140625l-4.03125 18.921875q-0.515625 2.40625 -0.46875 4.203125q0.0625 1.78125 1.09375 2.765625q1.046875 0.984375 3.453125 0.984375zm19.868805 -4.953125l5.421875 -33.984375l5.75 0l-9.15625 33.984375l-2.015625 0zm-3.765625 9.21875l1.25 -5.859375l5.75 0l-1.25 5.859375l-5.75 0z" fill-rule="nonzero"/></g></svg>