<svg version="1.1" viewBox="0.0 0.0 113.10498687664042 113.39632545931758" fill="none" stroke="none" stroke-linecap="square" stroke-miterlimit="10" xmlns:xlink="http://www.w3.org/1999/xlink" xmlns="http://www.w3.org/2000/svg"><clipPath id="p.0"><path d="m0 0l113.10499 0l0 113.396324l-113.10499 0l0 -113.396324z" clip-rule="nonzero"/></clipPath><g clip-path="url(#p.0)"><path fill="#000000" fill-opacity="0.0" d="m0 0l113.10499 0l0 113.396324l-113.10499 0z" fill-rule="evenodd"/><path fill="#000000" d="m1.355643 56.698162l0 0c0 -30.484379 24.712473 -55.19685 55.19685 -55.19685l0 0c14.639111 0 28.678646 5.815366 39.030064 16.166782c10.351418 10.351418 16.166786 24.390953 16.166786 39.030067l0 0c0 30.484379 -24.712471 55.19685 -55.19685 55.19685l0 0c-30.484379 0 -55.19685 -24.712471 -55.19685 -55.19685z" fill-rule="evenodd"/><path stroke="#000000" stroke-width="1.0" stroke-linejoin="round" stroke-linecap="butt" d="m1.355643 56.698162l0 0c0 -30.484379 24.712473 -55.19685 55.19685 -55.19685l0 0c14.639111 0 28.678646 5.815366 39.030064 16.166782c10.351418 10.351418 16.166786 24.390953 16.166786 39.030067l0 0c0 30.484379 -24.712471 55.19685 -55.19685 55.19685l0 0c-30.484379 0 -55.19685 -24.712471 -55.19685 -55.19685z" fill-rule="evenodd"/><path fill="#000000" fill-opacity="0.0" d="m0 7.3385825l55.874016 0l0 46.866142l-55.874016 0z" fill-rule="evenodd"/><path fill="#ffffff" d="m27.326077 38.09858l3.21875 -15.171873q-0.03125 0.015625 -0.546875 0.125q-0.5 0.109375 -1.140625 0.234375q-0.625 0.109375 -1.125 0.203125q-0.5 0.09375 -0.53125 0.09375l0.40625 -1.84375q0.40625 -0.09375 0.9375 -0.25q0.546875 -0.15625 1.125 -0.375q0.59375 -0.234375 1.140625 -0.5625q0.5625 -0.34375 1.015625 -0.796875l1.828125 0l-3.90625 18.343748l-2.421875 0z" fill-rule="nonzero"/><path fill="#000000" fill-opacity="0.0" d="m26.552504 2.5879266l60.0 0l0 104.566925l-60.0 0z" fill-rule="evenodd"/><path fill="#ffffff" d="m72.88063 56.525425q0 5.53125 -2.140625 10.062504q-2.125 4.53125 -6.03125 7.171875q-3.890625 2.625 -9.03125 2.625q-4.921875 0 -8.921875 -2.625q-4.0 -2.640625 -6.3125 -7.203125q-2.296875 -4.562504 -2.296875 -10.093754q0 -5.734375 2.296875 -10.265625q2.3125 -4.53125 6.34375 -7.0625q4.03125 -2.546875 8.96875 -2.546875q5.53125 0 9.390625 2.875q3.875 2.859375 5.796875 7.4375q1.9375 4.5625 1.9375 9.625zm-17.125 16.203129q4.0 0 7.0625 -2.125q3.0625 -2.140625 4.71875 -5.84375q1.671875 -3.7031288 1.671875 -8.171879q0 -4.59375 -1.703125 -8.328125q-1.6875 -3.734375 -4.796875 -5.859375q-3.09375 -2.140625 -7.15625 -2.140625q-4.0625 0 -7.203125 2.34375q-3.125 2.328125 -4.828125 6.09375q-1.703125 3.765625 -1.703125 7.890625q0 4.40625 1.765625 8.109379q1.765625 3.6875 4.921875 5.859375q3.171875 2.171875 7.25 2.171875z" fill-rule="nonzero"/></g></svg>