<svg version="1.1" viewBox="0.0 0.0 112.22572178477691 108.36220472440945" fill="none" stroke="none" stroke-linecap="square" stroke-miterlimit="10" xmlns:xlink="http://www.w3.org/1999/xlink" xmlns="http://www.w3.org/2000/svg"><clipPath id="p.0"><path d="m0 0l112.22572 0l0 108.362206l-112.22572 0l0 -108.362206z" clip-rule="nonzero"/></clipPath><g clip-path="url(#p.0)"><path fill="#000000" fill-opacity="0.0" d="m0 0l112.22572 0l0 108.362206l-112.22572 0z" fill-rule="evenodd"/><path fill="#ffffff" d="m2.8372703 54.181103l0 0c0 -29.423296 23.852293 -53.275593 53.275593 -53.275593l0 0c14.129562 0 27.68042 5.612948 37.67153 15.604059c9.991112 9.991112 15.604057 23.541965 15.604057 37.67153l0 0c0 29.423298 -23.852295 53.275593 -53.27559 53.275593l0 0c-29.423298 0 -53.275593 -23.852295 -53.275593 -53.275593z" fill-rule="evenodd"/><path fill="#000000" fill-opacity="0.0" d="m28.254593 4.086614l55.716537 0l0 100.18897l-55.716537 0z" fill-rule="evenodd"/><path fill="#000000" d="m51.84015 77.08662l0 -35.76563l8.515625 0l0 35.76563l-8.515625 0zm0 -40.98438l0 -7.281248l8.546875 0l0 7.281248l-8.546875 0z" fill-rule="nonzero"/></g></svg>