<svg version="1.1" viewBox="0.0 0.0 113.10498687664042 113.39632545931758" fill="none" stroke="none" stroke-linecap="square" stroke-miterlimit="10" xmlns:xlink="http://www.w3.org/1999/xlink" xmlns="http://www.w3.org/2000/svg"><clipPath id="p.0"><path d="m0 0l113.10499 0l0 113.396324l-113.10499 0l0 -113.396324z" clip-rule="nonzero"/></clipPath><g clip-path="url(#p.0)"><path fill="#000000" fill-opacity="0.0" d="m0 0l113.10499 0l0 113.396324l-113.10499 0z" fill-rule="evenodd"/><path fill="#000000" d="m1.355643 56.698162l0 0c0 -30.484379 24.712473 -55.19685 55.19685 -55.19685l0 0c14.639111 0 28.678646 5.815366 39.030064 16.166782c10.351418 10.351418 16.166786 24.390953 16.166786 39.030067l0 0c0 30.484379 -24.712471 55.19685 -55.19685 55.19685l0 0c-30.484379 0 -55.19685 -24.712471 -55.19685 -55.19685z" fill-rule="evenodd"/><path stroke="#000000" stroke-width="1.0" stroke-linejoin="round" stroke-linecap="butt" d="m1.355643 56.698162l0 0c0 -30.484379 24.712473 -55.19685 55.19685 -55.19685l0 0c14.639111 0 28.678646 5.815366 39.030064 16.166782c10.351418 10.351418 16.166786 24.390953 16.166786 39.030067l0 0c0 30.484379 -24.712471 55.19685 -55.19685 55.19685l0 0c-30.484379 0 -55.19685 -24.712471 -55.19685 -55.19685z" fill-rule="evenodd"/><path fill="#000000" fill-opacity="0.0" d="m0 7.3385825l55.874016 0l0 46.866142l-55.874016 0z" fill-rule="evenodd"/><path fill="#ffffff" d="m27.326077 38.09858l3.21875 -15.171873q-0.03125 0.015625 -0.546875 0.125q-0.5 0.109375 -1.140625 0.234375q-0.625 0.109375 -1.125 0.203125q-0.5 0.09375 -0.53125 0.09375l0.40625 -1.84375q0.40625 -0.09375 0.9375 -0.25q0.546875 -0.15625 1.125 -0.375q0.59375 -0.234375 1.140625 -0.5625q0.5625 -0.34375 1.015625 -0.796875l1.828125 0l-3.90625 18.343748l-2.421875 0z" fill-rule="nonzero"/><path fill="#000000" fill-opacity="0.0" d="m26.552504 2.5879266l60.0 0l0 104.566925l-60.0 0z" fill-rule="evenodd"/><path fill="#ffffff" d="m65.41188 39.462925l0 -2.0l3.609375 0l0 12.328125l-3.609375 0l0 -5.9375q-1.734375 -1.65625 -4.234375 -2.59375q-2.5 -0.9375 -5.15625 -0.9375q-2.9375 0 -5.3125 1.0q-2.359375 1.0 -3.703125 2.734375q-1.328125 1.734375 -1.328125 3.875q0 3.53125 3.0 5.4375q3.0 1.890625 9.671875 2.28125q6.40625 0.40625 9.234375 2.984375q2.828125 2.5625 2.828125 6.359379q0 5.265625 -3.875 8.328125q-3.859375 3.0625 -10.1875 3.0625q-3.46875 0 -6.671875 -0.859375q-3.1875 -0.875 -5.65625 -2.53125l0 2.65625l-3.671875 0l0 -12.000004l3.671875 0l0 5.203129q2.328125 1.875 5.359375 2.875q3.03125 1.0 6.375 1.0q5.125 0 8.046875 -1.9375q2.9375 -1.9375 2.9375 -5.203125q0 -2.4687538 -1.40625 -3.7656288q-1.390625 -1.296875 -3.921875 -1.859375q-2.53125 -0.578125 -6.734375 -0.84375q-6.0 -0.390625 -9.296875 -3.125q-3.296875 -2.734375 -3.296875 -7.203125q0 -3.265625 1.703125 -6.0625q1.703125 -2.796875 4.796875 -4.421875q3.09375 -1.640625 7.234375 -1.640625q2.671875 0 5.234375 0.734375q2.5625 0.734375 4.359375 2.0625z" fill-rule="nonzero"/></g></svg>