<svg version="1.1" viewBox="0.0 0.0 1132.0 184.0" fill="none" stroke="none" stroke-linecap="square" stroke-miterlimit="10" xmlns:xlink="http://www.w3.org/1999/xlink" xmlns="http://www.w3.org/2000/svg"><clipPath id="p.0"><path d="m0 0l1132.0 0l0 184.0l-1132.0 0l0 -184.0z" clip-rule="nonzero"/></clipPath><g clip-path="url(#p.0)"><path fill="#000000" fill-opacity="0.0" d="m0 0l1132.0 0l0 184.0l-1132.0 0z" fill-rule="evenodd"/><path fill="#f6b26b" d="m5.0183725 68.50787l0 0c0 -20.143173 16.32927 -36.47244 36.472443 -36.47244l0 0c9.673092 0 18.95 3.8426208 25.78991 10.682529c6.8399124 6.8399086 10.682533 16.116817 10.682533 25.78991l0 0c0 20.143173 -16.32927 36.472443 -36.472443 36.472443l0 0c-20.143173 0 -36.472443 -16.32927 -36.472443 -36.472443z" fill-rule="evenodd"/><path stroke="#000000" stroke-width="8.0" stroke-linejoin="round" stroke-linecap="butt" d="m5.0183725 68.50787l0 0c0 -20.143173 16.32927 -36.47244 36.472443 -36.47244l0 0c9.673092 0 18.95 3.8426208 25.78991 10.682529c6.8399124 6.8399086 10.682533 16.116817 10.682533 25.78991l0 0c0 20.143173 -16.32927 36.472443 -36.472443 36.472443l0 0c-20.143173 0 -36.472443 -16.32927 -36.472443 -36.472443z" fill-rule="evenodd"/><path fill="#f6b26b" d="m43.020996 59.800526l219.02362 0l0 17.417324l-219.02362 0z" fill-rule="evenodd"/><path stroke="#000000" stroke-width="8.0" stroke-linejoin="round" stroke-linecap="butt" d="m43.020996 59.800526l219.02362 0l0 17.417324l-219.02362 0z" fill-rule="evenodd"/><path fill="#f6b26b" d="m8.845144 68.48425l0 0c0 -18.029705 14.615965 -32.64567 32.645668 -32.64567l0 0c8.658169 0 16.961723 3.4394455 23.083977 9.561695c6.122246 6.1222534 9.561691 14.425804 9.561691 23.083977l0 0c0 18.029701 -14.615963 32.645668 -32.645668 32.645668l0 0c-18.029705 0 -32.645668 -14.615967 -32.645668 -32.645668z" fill-rule="evenodd"/><path fill="#ffe8a1" d="m225.38977 68.49475l0 0c0 -20.143173 16.329254 -36.472443 36.472443 -36.472443l0 0c9.673096 0 18.949982 3.8426208 25.789917 10.682533c6.839905 6.8399086 10.682526 16.116817 10.682526 25.78991l0 0c0 20.143173 -16.329285 36.472443 -36.472443 36.472443l0 0c-20.143188 0 -36.472443 -16.32927 -36.472443 -36.472443z" fill-rule="evenodd"/><path stroke="#000000" stroke-width="8.0" stroke-linejoin="round" stroke-linecap="butt" d="m225.38977 68.49475l0 0c0 -20.143173 16.329254 -36.472443 36.472443 -36.472443l0 0c9.673096 0 18.949982 3.8426208 25.789917 10.682533c6.839905 6.8399086 10.682526 16.116817 10.682526 25.78991l0 0c0 20.143173 -16.329285 36.472443 -36.472443 36.472443l0 0c-20.143188 0 -36.472443 -16.32927 -36.472443 -36.472443z" fill-rule="evenodd"/><path fill="#ffe8a1" d="m261.88852 59.800392l225.38583 0l0 17.41732l-225.38583 0z" fill-rule="evenodd"/><path stroke="#000000" stroke-width="8.0" stroke-linejoin="round" stroke-linecap="butt" d="m261.88852 59.800392l225.38583 0l0 17.41732l-225.38583 0z" fill-rule="evenodd"/><path fill="#ffffff" d="m450.66534 68.49475l0 0c0 -20.143173 16.329285 -36.472443 36.472443 -36.472443l0 0c9.673096 0 18.950012 3.8426208 25.789948 10.682533c6.839905 6.8399086 10.682495 16.116817 10.682495 25.78991l0 0c0 20.143173 -16.329254 36.472443 -36.472443 36.472443l0 0c-20.143158 0 -36.472443 -16.32927 -36.472443 -36.472443z" fill-rule="evenodd"/><path stroke="#000000" stroke-width="8.0" stroke-linejoin="round" stroke-linecap="butt" d="m450.66534 68.49475l0 0c0 -20.143173 16.329285 -36.472443 36.472443 -36.472443l0 0c9.673096 0 18.950012 3.8426208 25.789948 10.682533c6.839905 6.8399086 10.682495 16.116817 10.682495 25.78991l0 0c0 20.143173 -16.329254 36.472443 -36.472443 36.472443l0 0c-20.143158 0 -36.472443 -16.32927 -36.472443 -36.472443z" fill-rule="evenodd"/><path fill="#ffe8a1" d="m229.7559 68.50787l0 0c0 -18.029705 14.615967 -32.645668 32.645676 -32.645668l0 0c8.658173 0 16.961731 3.4394455 23.083954 9.561695c6.1222534 6.1222496 9.561707 14.425804 9.561707 23.083973l0 0c0 18.029709 -14.615967 32.645668 -32.64566 32.645668l0 0c-18.029709 0 -32.645676 -14.615959 -32.645676 -32.645668z" fill-rule="evenodd"/><path fill="#ffffff" d="m487.1353 59.775715l225.38586 0l0 17.417324l-225.38586 0z" fill-rule="evenodd"/><path stroke="#000000" stroke-width="8.0" stroke-linejoin="round" stroke-linecap="butt" d="m487.1353 59.775715l225.38586 0l0 17.417324l-225.38586 0z" fill-rule="evenodd"/><path fill="#ffffff" d="m454.51968 68.50787l0 0c0 -18.029705 14.615967 -32.645668 32.64566 -32.645668l0 0c8.658173 0 16.961731 3.4394455 23.083984 9.561695c6.1222534 6.1222496 9.561707 14.425804 9.561707 23.083973l0 0c0 18.029709 -14.615967 32.645668 -32.64569 32.645668l0 0c-18.029694 0 -32.64566 -14.615959 -32.64566 -32.645668z" fill-rule="evenodd"/><path fill="#bbe8ab" d="m675.9934 68.50787l0 0c0 -20.143173 16.329285 -36.47244 36.472473 -36.47244l0 0c9.673096 0 18.950012 3.8426208 25.789917 10.682529c6.839905 6.8399086 10.682495 16.116817 10.682495 25.78991l0 0c0 20.143173 -16.329224 36.472443 -36.472412 36.472443l0 0c-20.143188 0 -36.472473 -16.32927 -36.472473 -36.472443z" fill-rule="evenodd"/><path stroke="#000000" stroke-width="8.0" stroke-linejoin="round" stroke-linecap="butt" d="m675.9934 68.50787l0 0c0 -20.143173 16.329285 -36.47244 36.472473 -36.47244l0 0c9.673096 0 18.950012 3.8426208 25.789917 10.682529c6.839905 6.8399086 10.682495 16.116817 10.682495 25.78991l0 0c0 20.143173 -16.329224 36.472443 -36.472412 36.472443l0 0c-20.143188 0 -36.472473 -16.32927 -36.472473 -36.472443z" fill-rule="evenodd"/><path fill="#bbe8ab" d="m712.25616 59.800392l225.3858 0l0 17.41732l-225.3858 0z" fill-rule="evenodd"/><path stroke="#000000" stroke-width="8.0" stroke-linejoin="round" stroke-linecap="butt" d="m712.25616 59.800392l225.3858 0l0 17.41732l-225.3858 0z" fill-rule="evenodd"/><path fill="#bbe8ab" d="m679.82153 68.50787l0 0c0 -18.029705 14.615967 -32.645668 32.64563 -32.645668l0 0c8.658203 0 16.961731 3.4394455 23.083984 9.561695c6.1222534 6.1222496 9.561707 14.425804 9.561707 23.083973l0 0c0 18.029709 -14.615967 32.645668 -32.64569 32.645668l0 0c-18.029663 0 -32.64563 -14.615959 -32.64563 -32.645668z" fill-rule="evenodd"/><path fill="#8fb1e6" d="m901.32153 68.50787l0 0c0 -20.143173 16.329285 -36.47244 36.472412 -36.47244l0 0c9.673096 0 18.950012 3.8426208 25.789917 10.682529c6.839905 6.8399086 10.682556 16.116817 10.682556 25.78991l0 0c0 20.143173 -16.329285 36.472443 -36.472473 36.472443l0 0c-20.143127 0 -36.472412 -16.32927 -36.472412 -36.472443z" fill-rule="evenodd"/><path stroke="#000000" stroke-width="8.0" stroke-linejoin="round" stroke-linecap="butt" d="m901.32153 68.50787l0 0c0 -20.143173 16.329285 -36.47244 36.472412 -36.47244l0 0c9.673096 0 18.950012 3.8426208 25.789917 10.682529c6.839905 6.8399086 10.682556 16.116817 10.682556 25.78991l0 0c0 20.143173 -16.329285 36.472443 -36.472473 36.472443l0 0c-20.143127 0 -36.472412 -16.32927 -36.472412 -36.472443z" fill-rule="evenodd"/><path fill="#8fb1e6" d="m937.6588 59.775715l173.66931 0l0 17.417324l-173.66931 0z" fill-rule="evenodd"/><path stroke="#000000" stroke-width="8.0" stroke-linejoin="round" stroke-linecap="butt" d="m937.6588 59.775715l173.66931 0l0 17.417324l-173.66931 0z" fill-rule="evenodd"/><path fill="#8fb1e6" d="m905.12335 68.50787l0 0c0 -18.029705 14.615967 -32.645668 32.64569 -32.645668l0 0c8.658142 0 16.961731 3.4394455 23.083984 9.561695c6.1222534 6.1222496 9.5616455 14.425804 9.5616455 23.083973l0 0c0 18.029709 -14.615967 32.645668 -32.64563 32.645668l0 0c-18.029724 0 -32.64569 -14.615959 -32.64569 -32.645668z" fill-rule="evenodd"/><path fill="#9e90c4" d="m1054.0342 32.02231l72.944824 0l0 72.944885l-72.944824 0z" fill-rule="evenodd"/><path stroke="#000000" stroke-width="8.0" stroke-linejoin="round" stroke-linecap="butt" d="m1054.0342 32.02231l72.944824 0l0 72.944885l-72.944824 0z" fill-rule="evenodd"/></g></svg>