<svg version="1.1" viewBox="0.0 0.0 1295.015748031496 107.0" fill="none" stroke="none" stroke-linecap="square" stroke-miterlimit="10" xmlns:xlink="http://www.w3.org/1999/xlink" xmlns="http://www.w3.org/2000/svg"><clipPath id="p.0"><path d="m0 0l1295.0157 0l0 107.0l-1295.0157 0l0 -107.0z" clip-rule="nonzero"/></clipPath><g clip-path="url(#p.0)"><path fill="#000000" fill-opacity="0.0" d="m0 0l1295.0157 0l0 107.0l-1295.0157 0z" fill-rule="evenodd"/><path fill="#8fb1e6" d="m1073.2521 47.375328l188.5354 0l0 21.102364l-188.5354 0z" fill-rule="evenodd"/><path stroke="#000000" stroke-width="8.0" stroke-linejoin="round" stroke-linecap="butt" d="m1073.2521 47.375328l188.5354 0l0 21.102364l-188.5354 0z" fill-rule="evenodd"/><path fill="#bbe8ab" d="m815.0231 47.40663l258.11023 0l0 21.102364l-258.11023 0z" fill-rule="evenodd"/><path stroke="#000000" stroke-width="8.0" stroke-linejoin="round" stroke-linecap="butt" d="m815.0231 47.40663l258.11023 0l0 21.102364l-258.11023 0z" fill-rule="evenodd"/><path fill="#ffffff" d="m557.11615 47.376534l258.11023 0l0 21.102364l-258.11023 0z" fill-rule="evenodd"/><path stroke="#000000" stroke-width="8.0" stroke-linejoin="round" stroke-linecap="butt" d="m557.11615 47.376534l258.11023 0l0 21.102364l-258.11023 0z" fill-rule="evenodd"/><path fill="#f7db83" d="m299.0649 47.40663l258.11026 0l0 21.102364l-258.11026 0z" fill-rule="evenodd"/><path stroke="#000000" stroke-width="8.0" stroke-linejoin="round" stroke-linecap="butt" d="m299.0649 47.40663l258.11026 0l0 21.102364l-258.11026 0z" fill-rule="evenodd"/><path fill="#f6b26b" d="m41.006176 47.40663l258.11026 0l0 21.102364l-258.11026 0z" fill-rule="evenodd"/><path stroke="#000000" stroke-width="8.0" stroke-linejoin="round" stroke-linecap="butt" d="m41.006176 47.40663l258.11026 0l0 21.102364l-258.11026 0z" fill-rule="evenodd"/><path fill="#f7db83" d="m256.22562 58.03018l0 0c0 -24.570145 18.726501 -44.488186 41.826782 -44.488186l0 0c11.09314 0 21.731964 4.6871347 29.575989 13.030288c7.844055 8.343153 12.250793 19.6589 12.250793 31.4579l0 0c0 24.570152 -18.726501 44.48819 -41.826782 44.48819l0 0c-23.10028 0 -41.826782 -19.918037 -41.826782 -44.48819z" fill-rule="evenodd"/><path stroke="#000000" stroke-width="8.0" stroke-linejoin="round" stroke-linecap="butt" d="m256.22562 58.03018l0 0c0 -24.570145 18.726501 -44.488186 41.826782 -44.488186l0 0c11.09314 0 21.731964 4.6871347 29.575989 13.030288c7.844055 8.343153 12.250793 19.6589 12.250793 31.4579l0 0c0 24.570152 -18.726501 44.48819 -41.826782 44.48819l0 0c-23.10028 0 -41.826782 -19.918037 -41.826782 -44.48819z" fill-rule="evenodd"/><path fill="#ffffff" d="m507.66287 57.925198l0 0c0 -24.570148 18.72647 -44.48819 41.82675 -44.48819l0 0c11.09314 0 21.731995 4.6871357 29.575989 13.030289c7.844055 8.343155 12.250793 19.658897 12.250793 31.457901l0 0c0 24.570148 -18.726501 44.488186 -41.826782 44.488186l0 0c-23.10028 0 -41.82675 -19.918037 -41.82675 -44.488186z" fill-rule="evenodd"/><path stroke="#000000" stroke-width="8.0" stroke-linejoin="round" stroke-linecap="butt" d="m507.66287 57.925198l0 0c0 -24.570148 18.72647 -44.48819 41.82675 -44.48819l0 0c11.09314 0 21.731995 4.6871357 29.575989 13.030289c7.844055 8.343155 12.250793 19.658897 12.250793 31.457901l0 0c0 24.570148 -18.726501 44.488186 -41.826782 44.488186l0 0c-23.10028 0 -41.82675 -19.918037 -41.82675 -44.488186z" fill-rule="evenodd"/><path fill="#bbe8ab" d="m759.07886 57.925453l0 0c0 -24.570148 18.726501 -44.488186 41.826782 -44.488186l0 0c11.09314 0 21.731934 4.6871347 29.575989 13.030288c7.844055 8.343153 12.250793 19.6589 12.250793 31.4579l0 0c0 24.570152 -18.726501 44.48819 -41.826782 44.48819l0 0c-23.10028 0 -41.826782 -19.918037 -41.826782 -44.48819z" fill-rule="evenodd"/><path stroke="#000000" stroke-width="8.0" stroke-linejoin="round" stroke-linecap="butt" d="m759.07886 57.925453l0 0c0 -24.570148 18.726501 -44.488186 41.826782 -44.488186l0 0c11.09314 0 21.731934 4.6871347 29.575989 13.030288c7.844055 8.343153 12.250793 19.6589 12.250793 31.4579l0 0c0 24.570152 -18.726501 44.48819 -41.826782 44.48819l0 0c-23.10028 0 -41.826782 -19.918037 -41.826782 -44.48819z" fill-rule="evenodd"/><path fill="#8fb1e6" d="m1010.5395 58.03044l0 0c0 -24.570148 18.726501 -44.48819 41.826843 -44.48819l0 0c11.09314 0 21.731934 4.6871347 29.575928 13.03029c7.843994 8.343153 12.250732 19.6589 12.250732 31.4579l0 0c0 24.570152 -18.72644 44.48819 -41.82666 44.48819l0 0c-23.100342 0 -41.826843 -19.918037 -41.826843 -44.48819z" fill-rule="evenodd"/><path stroke="#000000" stroke-width="8.0" stroke-linejoin="round" stroke-linecap="butt" d="m1010.5395 58.03044l0 0c0 -24.570148 18.726501 -44.48819 41.826843 -44.48819l0 0c11.09314 0 21.731934 4.6871347 29.575928 13.03029c7.843994 8.343153 12.250732 19.6589 12.250732 31.4579l0 0c0 24.570152 -18.72644 44.48819 -41.82666 44.48819l0 0c-23.100342 0 -41.826843 -19.918037 -41.826843 -44.48819z" fill-rule="evenodd"/><path fill="#9e90c4" d="m1247.1837 13.43832l18.078735 0l0 88.97638l-18.078735 0z" fill-rule="evenodd"/><path stroke="#000000" stroke-width="8.0" stroke-linejoin="round" stroke-linecap="butt" d="m1247.1837 13.43832l18.078735 0l0 88.97638l-18.078735 0z" fill-rule="evenodd"/><path fill="#f6b26b" d="m4.7847767 58.03044l0 0c0 -24.570148 18.726484 -44.48819 41.826775 -44.48819l0 0c11.093147 0 21.731949 4.6871347 29.575996 13.03029c7.84404 8.343153 12.250778 19.6589 12.250778 31.4579l0 0c0 24.570152 -18.726486 44.48819 -41.826775 44.48819l0 0c-23.100288 0 -41.826775 -19.918037 -41.826775 -44.48819z" fill-rule="evenodd"/><path stroke="#000000" stroke-width="8.0" stroke-linejoin="round" stroke-linecap="butt" d="m4.7847767 58.03044l0 0c0 -24.570148 18.726484 -44.48819 41.826775 -44.48819l0 0c11.093147 0 21.731949 4.6871347 29.575996 13.03029c7.84404 8.343153 12.250778 19.6589 12.250778 31.4579l0 0c0 24.570152 -18.726486 44.48819 -41.826775 44.48819l0 0c-23.100288 0 -41.826775 -19.918037 -41.826775 -44.48819z" fill-rule="evenodd"/></g></svg>