<svg version="1.1" viewBox="0.0 0.0 1132.0 184.0" fill="none" stroke="none" stroke-linecap="square" stroke-miterlimit="10" xmlns:xlink="http://www.w3.org/1999/xlink" xmlns="http://www.w3.org/2000/svg"><clipPath id="p.0"><path d="m0 0l1132.0 0l0 184.0l-1132.0 0l0 -184.0z" clip-rule="nonzero"/></clipPath><g clip-path="url(#p.0)"><path fill="#000000" fill-opacity="0.0" d="m0 0l1132.0 0l0 184.0l-1132.0 0z" fill-rule="evenodd"/><path fill="#6d9eeb" d="m1125.6116 20.987297l0 83.94666l0 0c0 5.5661774 -2.2111816 10.904381 -6.1470947 14.840263c-3.935791 3.9358826 -9.274048 6.1470337 -14.84021 6.1470337l-203.95758 0c-6.1035156E-4 0 -0.0010986328 -4.6539307E-4 -0.0010986328 -0.001045227l0.0010986328 -125.92021l0 1.8075434E-19c0 -5.795366E-4 4.272461E-4 -0.0010493438 0.0010375977 -0.0010493438l203.95654 0.0010493438l0 0c11.590942 0 20.987305 9.396333 20.987305 20.987297z" fill-rule="evenodd"/><path fill="#bbe8ab" d="m675.7165 0l224.94489 0l0 125.92126l-224.94489 0z" fill-rule="evenodd"/><path fill="#ffffff" d="m450.33383 0l224.94485 0l0 125.92126l-224.94485 0z" fill-rule="evenodd"/><path fill="#000000" fill-opacity="0.0" d="m51.826763 132.36482l121.291336 0l0 67.87402l-121.291336 0z" fill-rule="evenodd"/><path fill="#000000" d="m70.55642 179.76483l0 -28.609375l5.625 0q1.515625 2.375 6.1875 9.609375q4.671875 7.21875 5.6875 8.78125q0.28125 0.453125 1.0 1.515625q0.71875 1.0625 1.0 1.515625q-0.125 -6.703125 -0.125 -6.953125l0 -14.46875l4.8125 0l0 28.609375l-5.703125 0l-12.90625 -20.125l-0.9375 -1.53125q0.15625 5.15625 0.15625 7.234375l0 14.421875l-4.796875 0zm30.476562 0l0 -28.609375l5.296875 0l0 28.609375l-5.296875 0zm24.101562 0.40625q-6.265625 0 -9.9375 -3.9375q-3.671875 -3.953125 -3.671875 -10.90625q0 -6.59375 3.828125 -10.59375q3.84375 -4.0 10.0625 -4.0q5.0156174 0 8.499992 2.328125l-1.671875 4.0q-3.328125 -2.046875 -6.7187424 -2.046875q-3.9375 0 -6.234375 2.84375q-2.296875 2.84375 -2.296875 7.625q0 4.96875 2.21875 7.6875q2.21875 2.703125 6.3125 2.703125q3.5937424 0 7.1406174 -1.796875l0.703125 4.140625q-3.28125 1.953125 -8.234367 1.953125zm12.941399 -0.40625l0 -28.609375l17.34375 0l-0.21875 4.1875l-11.84375 0l0 7.390625l11.25 0l0 4.203125l-11.25 0l0 8.609375l12.265625 0l-0.171875 4.21875l-17.375 0z" fill-rule="nonzero"/><path fill="#000000" fill-opacity="0.0" d="m263.51334 132.3652l148.6929 0l0 67.87402l-148.6929 0z" fill-rule="evenodd"/><path fill="#000000" d="m292.8598 180.17146q-6.546875 0 -10.234375 -3.9375q-3.671875 -3.953125 -3.671875 -10.8125q0 -4.34375 1.71875 -7.65625q1.71875 -3.3125 5.0625 -5.171875q3.34375 -1.859375 7.890625 -1.859375q5.21875 0 8.9375 2.25l-1.71875 3.953125q-3.546875 -1.921875 -7.125 -1.921875q-4.328125 0 -6.8125 2.8125q-2.484375 2.8125 -2.484375 7.65625q0 4.8125 2.203125 7.609375q2.21875 2.78125 6.46875 2.78125q2.734375 0 4.96875 -0.859375l0 -6.640625l-6.0 0l0.03125 -4.15625l10.9375 0l0 13.8125q-2.65625 1.09375 -5.03125 1.625q-2.359375 0.515625 -5.140625 0.515625zm22.382812 -7.03125q2.125 2.71875 6.28125 2.71875q4.171875 0 6.28125 -2.703125q2.125 -2.703125 2.125 -7.65625q0 -5.0 -2.125 -7.75q-2.109375 -2.75 -6.25 -2.75q-4.15625 0 -6.296875 2.765625q-2.140625 2.765625 -2.140625 7.734375q0 4.921875 2.125 7.640625zm6.265625 7.03125q-6.453125 0 -10.203125 -3.90625q-3.734375 -3.921875 -3.734375 -10.8125q0 -6.9375 3.75 -10.828125q3.75 -3.890625 10.203125 -3.890625q6.46875 0 10.203125 3.90625q3.734375 3.890625 3.734375 10.828125q0 6.859375 -3.75 10.78125q-3.75 3.921875 -10.203125 3.921875zm25.492188 -7.03125q2.125 2.71875 6.28125 2.71875q4.171875 0 6.28125 -2.703125q2.125 -2.703125 2.125 -7.65625q0 -5.0 -2.125 -7.75q-2.109375 -2.75 -6.25 -2.75q-4.15625 0 -6.296875 2.765625q-2.140625 2.765625 -2.140625 7.734375q0 4.921875 2.125 7.640625zm6.265625 7.03125q-6.453125 0 -10.203125 -3.90625q-3.734375 -3.921875 -3.734375 -10.8125q0 -6.9375 3.75 -10.828125q3.75 -3.890625 10.203125 -3.890625q6.46875 0 10.203125 3.90625q3.734375 3.890625 3.734375 10.828125q0 6.859375 -3.75 10.78125q-3.75 3.921875 -10.203125 3.921875zm24.289062 -4.640625l3.78125 0q4.90625 0 7.453125 -2.5625q2.5625 -2.578125 2.5625 -7.5q0 -5.28125 -2.640625 -7.671875q-2.625 -2.390625 -7.9375 -2.390625l-3.21875 0l0 20.125zm-5.296875 4.234375l0 -28.609375l8.28125 0q3.75 0 6.71875 0.859375q2.96875 0.859375 5.109375 2.59375q2.140625 1.71875 3.28125 4.453125q1.140625 2.71875 1.140625 6.28125q0 6.9375 -4.1875 10.6875q-4.171875 3.734375 -11.578125 3.734375l-8.765625 0z" fill-rule="nonzero"/><path fill="#000000" fill-opacity="0.0" d="m488.45932 132.36482l148.6929 0l0 67.87402l-148.6929 0z" fill-rule="evenodd"/><path fill="#000000" d="m515.94055 180.17108q-6.546875 0 -10.234375 -3.9375q-3.671875 -3.953125 -3.671875 -10.8125q0 -4.34375 1.71875 -7.65625q1.71875 -3.3125 5.0625 -5.171875q3.34375 -1.859375 7.890625 -1.859375q5.21875 0 8.9375 2.25l-1.71875 3.953125q-3.546875 -1.921875 -7.125 -1.921875q-4.328125 0 -6.8125 2.8125q-2.484375 2.8125 -2.484375 7.65625q0 4.8125 2.203125 7.609375q2.21875 2.78125 6.46875 2.78125q2.734375 0 4.96875 -0.859375l0 -6.640625l-6.0 0l0.03125 -4.15625l10.9375 0l0 13.8125q-2.65625 1.09375 -5.03125 1.625q-2.359375 0.515625 -5.140625 0.515625zm15.7265625 -0.40625l0 -28.6875l10.609375 0q2.15625 0 3.75 0.203125q1.59375 0.1875 3.03125 0.703125q1.4375 0.515625 2.328125 1.390625q0.890625 0.875 1.40625 2.296875q0.515625 1.421875 0.515625 3.34375q0 5.703125 -5.171875 7.5q1.046875 1.203125 2.609375 4.421875l4.265625 8.828125l-5.78125 0l-3.34375 -7.484375q-1.890625 -4.015625 -2.34375 -4.765625q-0.328125 -0.015625 -2.203125 -0.015625l-4.4375 -0.046875l0 12.3125l-5.234375 0zm11.078125 -16.09375q3.046875 0 4.375 -1.078125q1.328125 -1.09375 1.328125 -3.5q0 -2.109375 -1.359375 -3.09375q-1.34375 -1.0 -4.109375 -1.0l-6.078125 0l0 8.65625q0.296875 0 2.90625 0.015625q2.625 0 2.9375 0zm16.074219 16.09375l0 -28.609375l17.34375 0l-0.21875 4.1875l-11.84375 0l0 7.390625l11.25 0l0 4.203125l-11.25 0l0 8.609375l12.265625 0l-0.171875 4.21875l-17.375 0zm19.34375 0l10.53125 -28.640625l5.765625 0l10.375 28.640625l-5.4375 0l-2.828125 -8.09375l-10.015625 0l-2.859375 8.09375l-5.53125 0zm9.71875 -12.03125l7.34375 0q-3.515625 -11.265625 -3.625 -11.640625l-3.71875 11.640625zm23.757812 12.03125l0 -24.375l-8.328125 0l0 -4.234375l21.953125 0l0 4.234375l-8.3125 0l0 24.375l-5.3125 0z" fill-rule="nonzero"/><path fill="#f6b26b" d="m0 104.94709l0 -83.94667l0 0c0 -5.5661774 2.2111552 -10.904378 6.1470366 -14.84026c3.9358816 -3.9358814 9.274083 -6.1470366 14.8402605 -6.1470366l203.95758 0c5.79834E-4 0 0.0010528564 4.6980754E-4 0.0010528564 0.0010493435l-0.0010528564 125.920204l0 0c0 5.79834E-4 -4.7302246E-4 0.0010528564 -0.0010528564 0.0010528564l-203.95654 -0.0010528564l0 0c-11.590964 0 -20.987297 -9.396332 -20.987297 -20.98729z" fill-rule="evenodd"/><path fill="#ffde7a" d="m225.38893 0.0131233595l224.9449 0l0 125.92126l-224.9449 0z" fill-rule="evenodd"/><path fill="#000000" fill-opacity="0.0" d="m701.3543 132.36351l173.66931 0l0 67.87402l-173.66931 0z" fill-rule="evenodd"/><path fill="#000000" d="m740.49365 179.76352l-7.765625 -28.609375l5.265625 0l5.546875 22.265625l6.53125 -22.140625l5.046875 0l6.203125 22.21875l5.65625 -22.34375l5.28125 0l-8.015625 28.609375l-5.484375 0l-6.109375 -20.953125l-6.703125 20.953125l-5.453125 0zm41.69922 -6.625q2.125 2.71875 6.28125 2.71875q4.171875 0 6.28125 -2.703125q2.125 -2.703125 2.125 -7.65625q0 -5.0 -2.125 -7.75q-2.109375 -2.75 -6.25 -2.75q-4.15625 0 -6.296875 2.765625q-2.140625 2.765625 -2.140625 7.734375q0 4.921875 2.125 7.640625zm6.265625 7.03125q-6.453125 0 -10.203125 -3.90625q-3.734375 -3.921875 -3.734375 -10.8125q0 -6.9375 3.75 -10.828125q3.75 -3.890625 10.203125 -3.890625q6.46875 0 10.203125 3.90625q3.734375 3.890625 3.734375 10.828125q0 6.859375 -3.75 10.78125q-3.75 3.921875 -10.203125 3.921875zm23.304688 -0.40625l-7.765625 -28.609375l5.265625 0l5.546875 22.265625l6.53125 -22.140625l5.046875 0l6.203125 22.21875l5.65625 -22.34375l5.28125 0l-8.015625 28.609375l-5.484375 0l-6.109375 -20.953125l-6.703125 20.953125l-5.453125 0z" fill-rule="nonzero"/><path fill="#000000" fill-opacity="0.0" d="m909.7533 132.36745l206.7716 0l0 67.87402l-206.7716 0z" fill-rule="evenodd"/><path fill="#000000" d="m921.4653 179.76746l10.53125 -28.640625l5.765625 0l10.375 28.640625l-5.4375 0l-2.828125 -8.09375l-10.015625 0l-2.859375 8.09375l-5.53125 0zm9.71875 -12.03125l7.34375 0q-3.515625 -11.265625 -3.625 -11.640625l-3.71875 11.640625zm19.804688 12.03125l0 -28.609375l6.25 0l8.640625 20.65625l8.71875 -20.65625l6.171875 0l0 28.609375l-4.890625 0l0 -14.140625l0.15625 -8.109375l-0.71875 2.15625l-7.328125 18.140625l-4.53125 0l-7.15625 -18.25l-0.734375 -2.140625l0.1875 8.28125l0 14.0625l-4.765625 0zm32.80078 0l10.53125 -28.640625l5.765625 0l10.375 28.640625l-5.4375 0l-2.828125 -8.09375l-10.015625 0l-2.859375 8.09375l-5.53125 0zm9.71875 -12.03125l7.34375 0q-3.515625 -11.265625 -3.625 -11.640625l-3.71875 11.640625zm18.105469 12.03125l0 -3.40625l15.093811 -20.984375l-14.578186 0l0 -4.21875l20.828186 0l0 3.84375l-14.828186 20.546875l14.921936 0l-0.015625 4.21875l-21.421936 0zm25.613342 0l0 -28.609375l5.296875 0l0 28.609375l-5.296875 0zm11.6328125 0l0 -28.609375l5.625 0q1.515625 2.375 6.1875 9.609375q4.671875 7.21875 5.6875 8.78125q0.28125 0.453125 1.0 1.515625q0.71875 1.0625 1.0 1.515625q-0.125 -6.703125 -0.125 -6.953125l0 -14.46875l4.8125 0l0 28.609375l-5.703125 0l-12.90625 -20.125l-0.9375 -1.53125q0.15625 5.15625 0.15625 7.234375l0 14.421875l-4.796875 0zm43.117188 0.40625q-6.546875 0 -10.234375 -3.9375q-3.671875 -3.953125 -3.671875 -10.8125q0 -4.34375 1.71875 -7.65625q1.71875 -3.3125 5.0625 -5.171875q3.34375 -1.859375 7.890625 -1.859375q5.21875 0 8.9375 2.25l-1.71875 3.953125q-3.546875 -1.921875 -7.125 -1.921875q-4.328125 0 -6.8125 2.8125q-2.484375 2.8125 -2.484375 7.65625q0 4.8125 2.203125 7.609375q2.21875 2.78125 6.46875 2.78125q2.734375 0 4.96875 -0.859375l0 -6.640625l-6.0 0l0.03125 -4.15625l10.9375 0l0 13.8125q-2.65625 1.09375 -5.03125 1.625q-2.359375 0.515625 -5.140625 0.515625z" fill-rule="nonzero"/><path fill="#6d9eeb" d="m1093.8713 0l0 125.92126c0 2.822876E-4 0 5.493164E-4 -2.4414062E-4 7.4768066E-4c-2.4414062E-4 1.9073486E-4 -4.8828125E-4 3.0517578E-4 -7.324219E-4 3.0517578E-4l-193.1643 -0.0010528564c-6.1035156E-4 0 -0.0010375977 -4.6539307E-4 -0.0010375977 -0.001045227l0.0010375977 -125.92021l0 1.8075434E-19c0 -5.795366E-4 4.272461E-4 -0.0010493438 0.0010375977 -0.0010493438l193.16425 0.0010493438l0 0c6.1035156E-4 0 0.0010986328 4.6980724E-4 0.0010986328 0.0010493438z" fill-rule="evenodd"/><path fill="#9e90c4" d="m1126.0447 21.00042l0 83.94667l0 0c0 5.5661774 -2.2111816 10.904373 -6.1470947 14.840256c-3.935913 3.9358826 -9.274048 6.1470337 -14.84021 6.1470337l-203.95764 0c-5.493164E-4 0 -0.0010375977 -4.6539307E-4 -0.0010375977 -0.001045227l0.0010375977 -125.92021l0 0c0 -5.795369E-4 4.8828125E-4 -0.0010493435 0.0010375977 -0.0010493435l203.9566 0.0010493435l0 0c11.590942 0 20.987305 9.396333 20.987305 20.987297z" fill-rule="evenodd"/><path fill="#8fb1e6" d="m1107.4279 20.987297l0 83.94666l0 0c0 5.5661774 -2.2111816 10.904381 -6.1470947 14.840263c-3.935913 3.9358826 -9.274048 6.1470337 -14.84021 6.1470337l-185.78436 0c-6.1035156E-4 0 -0.0010986328 -4.6539307E-4 -0.0010986328 -0.001045227l0.0010986328 -125.92021l0 1.8075434E-19c0 -5.795366E-4 4.272461E-4 -0.0010493438 0.0010375977 -0.0010493438l185.78333 0.0010493438l0 0c11.590942 0 20.987305 9.396333 20.987305 20.987297z" fill-rule="evenodd"/></g></svg>