<svg version="1.1" viewBox="0.0 0.0 100.0 100.0" fill="none" stroke="none" stroke-linecap="square" stroke-miterlimit="10" xmlns:xlink="http://www.w3.org/1999/xlink" xmlns="http://www.w3.org/2000/svg"><clipPath id="p.0"><path d="m0 0l100.0 0l0 100.0l-100.0 0l0 -100.0z" clip-rule="nonzero"/></clipPath><g clip-path="url(#p.0)"><path fill="#000000" fill-opacity="0.0" d="m0 0l100.0 0l0 100.0l-100.0 0z" fill-rule="evenodd"/><path fill="#000000" d="m0 50.0l0 0c0 -24.23095 22.385763 -43.874016 50.0 -43.874016l0 0c27.614235 0 50.0 19.643066 50.0 43.874016l0 0c0 24.23095 -22.385765 43.874016 -50.0 43.874016l0 0c-27.614237 0 -50.0 -19.643066 -50.0 -43.874016z" fill-rule="evenodd"/><path fill="#ffffff" d="m46.5379 63.637794l-14.016697 0l0 0c-8.070662 0 -14.613224 -6.5425606 -14.613224 -14.61322l0 0l0 0c0 -3.8756676 1.5396042 -7.592598 4.280113 -10.333111c2.740511 -2.740509 6.4574413 -4.280113 10.333111 -4.280113l6.8592186 0l0 -3.8759174l7.1574783 6.987417l-7.1574783 6.987419l0 -3.8759193l-6.8592186 0l0 0c-4.633793 0 -8.390224 3.7564316 -8.390224 8.390224l0 0l0 0c0 4.633789 3.7564316 8.390221 8.390224 8.390221l14.016697 0z" fill-rule="evenodd"/><path fill="#ffffff" d="m53.461784 34.120735l14.016701 0l0 0c8.070656 0 14.61322 6.5425606 14.61322 14.61322l0 0l0 0c0 3.8756676 -1.5396042 7.592598 -4.280113 10.333111c-2.740509 2.740509 -6.457443 4.280113 -10.333107 4.280113l-6.8592224 0l0 3.8759193l-7.1574783 -6.987419l7.1574783 -6.987419l0 3.8759193l6.8592224 0l0 0c4.633789 0 8.390221 -3.7564316 8.390221 -8.390224l0 0l0 0c0 -4.633789 -3.7564316 -8.390221 -8.390221 -8.390221l-14.016701 0z" fill-rule="evenodd"/></g></svg>