<svg version="1.1" viewBox="0.0 0.0 100.0 100.0" fill="none" stroke="none" stroke-linecap="square" stroke-miterlimit="10" xmlns:xlink="http://www.w3.org/1999/xlink" xmlns="http://www.w3.org/2000/svg"><clipPath id="p.0"><path d="m0 0l100.0 0l0 100.0l-100.0 0l0 -100.0z" clip-rule="nonzero"/></clipPath><g clip-path="url(#p.0)"><path fill="#000000" fill-opacity="0.0" d="m0 0l100.0 0l0 100.0l-100.0 0z" fill-rule="evenodd"/><path fill="#000000" d="m0 50.0l0 0c0 -24.23095 22.385763 -43.874016 50.0 -43.874016l0 0c27.614235 0 50.0 19.643066 50.0 43.874016l0 0c0 24.23095 -22.385765 43.874016 -50.0 43.874016l0 0c-27.614237 0 -50.0 -19.643066 -50.0 -43.874016z" fill-rule="evenodd"/><path fill="#ffffff" d="m45.969658 65.09449l-14.016699 0l0 0c-8.07066 0 -14.613222 -6.5425644 -14.613222 -14.613224l0 0l0 0c0 -3.8756676 1.5396023 -7.592598 4.280113 -10.333107c2.740511 -2.7405128 6.4574413 -4.280113 10.333109 -4.280113l0.92767143 0l0 -3.8759193l13.089027 6.987419l-13.089027 6.987419l0 -3.8759193l-0.92767143 0l0 0c-4.633793 0 -8.390223 3.7564278 -8.390223 8.390221l0 0l0 0c0 4.633793 3.7564297 8.390221 8.390223 8.390221l14.016699 0z" fill-rule="evenodd"/><path fill="#ffffff" d="m54.030025 34.90551l14.016697 0l0 0c8.070663 0 14.613228 6.5425644 14.613228 14.613224l0 0l0 0c0 3.8756676 -1.5396042 7.592598 -4.280113 10.333107c-2.7405167 2.7405128 -6.457443 4.280117 -10.333115 4.280117l-0.9276657 0l0 3.8759155l-13.089031 -6.987419l13.089031 -6.987419l0 3.8759193l0.9276657 0l0 0c4.6337967 0 8.390228 -3.7564278 8.390228 -8.390221l0 0l0 0c0 -4.633793 -3.7564316 -8.390221 -8.390228 -8.390221l-14.016697 0z" fill-rule="evenodd"/></g></svg>