<svg version="1.1" viewBox="0.0 0.0 113.10498687664042 113.39632545931758" fill="none" stroke="none" stroke-linecap="square" stroke-miterlimit="10" xmlns:xlink="http://www.w3.org/1999/xlink" xmlns="http://www.w3.org/2000/svg"><clipPath id="p.0"><path d="m0 0l113.10499 0l0 113.396324l-113.10499 0l0 -113.396324z" clip-rule="nonzero"/></clipPath><g clip-path="url(#p.0)"><path fill="#000000" fill-opacity="0.0" d="m0 0l113.10499 0l0 113.396324l-113.10499 0z" fill-rule="evenodd"/><path fill="#000000" d="m1.355643 56.698162l0 0c0 -30.484379 24.712473 -55.19685 55.19685 -55.19685l0 0c14.639111 0 28.678646 5.815366 39.030064 16.166782c10.351418 10.351418 16.166786 24.390953 16.166786 39.030067l0 0c0 30.484379 -24.712471 55.19685 -55.19685 55.19685l0 0c-30.484379 0 -55.19685 -24.712471 -55.19685 -55.19685z" fill-rule="evenodd"/><path stroke="#000000" stroke-width="1.0" stroke-linejoin="round" stroke-linecap="butt" d="m1.355643 56.698162l0 0c0 -30.484379 24.712473 -55.19685 55.19685 -55.19685l0 0c14.639111 0 28.678646 5.815366 39.030064 16.166782c10.351418 10.351418 16.166786 24.390953 16.166786 39.030067l0 0c0 30.484379 -24.712471 55.19685 -55.19685 55.19685l0 0c-30.484379 0 -55.19685 -24.712471 -55.19685 -55.19685z" fill-rule="evenodd"/><path fill="#000000" fill-opacity="0.0" d="m0 7.3385825l55.874016 0l0 46.866142l-55.874016 0z" fill-rule="evenodd"/><path fill="#ffffff" d="m27.326077 38.09858l3.21875 -15.171873q-0.03125 0.015625 -0.546875 0.125q-0.5 0.109375 -1.140625 0.234375q-0.625 0.109375 -1.125 0.203125q-0.5 0.09375 -0.53125 0.09375l0.40625 -1.84375q0.40625 -0.09375 0.9375 -0.25q0.546875 -0.15625 1.125 -0.375q0.59375 -0.234375 1.140625 -0.5625q0.5625 -0.34375 1.015625 -0.796875l1.828125 0l-3.90625 18.343748l-2.421875 0z" fill-rule="nonzero"/><path fill="#000000" fill-opacity="0.0" d="m26.552504 2.5879266l60.0 0l0 104.566925l-60.0 0z" fill-rule="evenodd"/><path fill="#ffffff" d="m73.00563 50.85355l-3.65625 0l0 -9.734375l-11.671875 0l0 30.796879l8.203125 0l0 3.671875l-20.0625 0l0 -3.671875l8.203125 0l0 -30.796879l-11.671875 0l0 9.734375l-3.65625 0l0 -13.390625l34.3125 0l0 13.390625z" fill-rule="nonzero"/></g></svg>