<svg version="1.1" viewBox="0.0 0.0 113.10498687664042 113.39632545931758" fill="none" stroke="none" stroke-linecap="square" stroke-miterlimit="10" xmlns:xlink="http://www.w3.org/1999/xlink" xmlns="http://www.w3.org/2000/svg"><clipPath id="p.0"><path d="m0 0l113.10499 0l0 113.396324l-113.10499 0l0 -113.396324z" clip-rule="nonzero"/></clipPath><g clip-path="url(#p.0)"><path fill="#000000" fill-opacity="0.0" d="m0 0l113.10499 0l0 113.396324l-113.10499 0z" fill-rule="evenodd"/><path fill="#000000" d="m1.355643 56.698162l0 0c0 -30.484379 24.712473 -55.19685 55.19685 -55.19685l0 0c14.639111 0 28.678646 5.815366 39.030064 16.166782c10.351418 10.351418 16.166786 24.390953 16.166786 39.030067l0 0c0 30.484379 -24.712471 55.19685 -55.19685 55.19685l0 0c-30.484379 0 -55.19685 -24.712471 -55.19685 -55.19685z" fill-rule="evenodd"/><path stroke="#000000" stroke-width="1.0" stroke-linejoin="round" stroke-linecap="butt" d="m1.355643 56.698162l0 0c0 -30.484379 24.712473 -55.19685 55.19685 -55.19685l0 0c14.639111 0 28.678646 5.815366 39.030064 16.166782c10.351418 10.351418 16.166786 24.390953 16.166786 39.030067l0 0c0 30.484379 -24.712471 55.19685 -55.19685 55.19685l0 0c-30.484379 0 -55.19685 -24.712471 -55.19685 -55.19685z" fill-rule="evenodd"/><path fill="#000000" fill-opacity="0.0" d="m0 7.3385825l55.874016 0l0 46.866142l-55.874016 0z" fill-rule="evenodd"/><path fill="#ffffff" d="m27.893658 38.301704q-1.640625 0 -2.5 -0.65625q-0.859375 -0.65625 -1.046875 -1.859375q-0.1875 -1.21875 0.15625 -2.859375q0.203125 -0.921875 0.515625 -1.6249981q0.3125 -0.703125 0.71875 -1.234375q0.421875 -0.53125 0.921875 -0.921875q0.515625 -0.40625 1.078125 -0.71875q-0.78125 -0.609375 -1.140625 -1.59375q-0.34375 -0.984375 -0.03125 -2.515625q0.3125 -1.4375 0.984375 -2.5q0.6875 -1.078125 1.765625 -1.65625q1.09375 -0.578125 2.5625 -0.578125q1.484375 0 2.296875 0.578125q0.8125 0.578125 1.03125 1.65625q0.234375 1.0625 -0.078125 2.5q-0.328125 1.546875 -1.09375 2.53125q-0.75 0.96875 -1.796875 1.578125q0.40625 0.3125 0.734375 0.71875q0.34375 0.390625 0.53125 0.921875q0.203125 0.53125 0.21875 1.234375q0.03125 0.7031231 -0.171875 1.6249981q-0.34375 1.640625 -1.046875 2.859375q-0.703125 1.203125 -1.828125 1.859375q-1.125 0.65625 -2.78125 0.65625zm0.40625 -1.921875q0.890625 0 1.46875 -0.453125q0.578125 -0.453125 0.90625 -1.21875q0.34375 -0.78125 0.546875 -1.734375q0.171875 -0.859375 0.140625 -1.6093731q-0.03125 -0.765625 -0.40625 -1.25q-0.375 -0.484375 -1.21875 -0.484375q-0.828125 0 -1.421875 0.484375q-0.59375 0.46875 -0.953125 1.234375q-0.359375 0.7499981 -0.546875 1.6249981q-0.203125 0.953125 -0.1875 1.734375q0.03125 0.765625 0.40625 1.21875q0.390625 0.453125 1.265625 0.453125zm1.9375 -9.062498q0.78125 -0.03125 1.265625 -0.484375q0.5 -0.453125 0.8125 -1.15625q0.3125 -0.71875 0.46875 -1.484375q0.25 -1.140625 0 -1.921875q-0.234375 -0.796875 -1.3125 -0.796875q-1.0625 0 -1.65625 0.796875q-0.59375 0.78125 -0.84375 1.921875q-0.15625 0.765625 -0.15625 1.484375q0.015625 0.703125 0.328125 1.15625q0.328125 0.453125 1.09375 0.484375z" fill-rule="nonzero"/><path fill="#000000" fill-opacity="0.0" d="m26.552504 2.5879266l60.0 0l0 104.566925l-60.0 0z" fill-rule="evenodd"/><path fill="#ffffff" d="m51.94313 41.119175l-5.0 0l8.40625 11.53125l8.46875 -11.53125l-4.140625 0l0 -3.65625l12.53125 0l0 3.65625l-4.265625 0l-10.453125 14.46875l11.71875 16.328129l4.265625 0l0 3.671875l-14.0 0l0 -3.671875l5.609375 0l-9.671875 -13.390629l-9.859375 13.390629l6.265625 0l0 3.671875l-14.796875 0l0 -3.671875l4.328125 0l11.859375 -16.328129l-10.453125 -14.46875l-4.40625 0l0 -3.65625l13.59375 0l0 3.65625z" fill-rule="nonzero"/></g></svg>