<svg version="1.1" viewBox="0.0 0.0 179.30971128608923 100.0" fill="none" stroke="none" stroke-linecap="square" stroke-miterlimit="10" xmlns:xlink="http://www.w3.org/1999/xlink" xmlns="http://www.w3.org/2000/svg"><clipPath id="p.0"><path d="m0 0l179.30971 0l0 100.0l-179.30971 0l0 -100.0z" clip-rule="nonzero"/></clipPath><g clip-path="url(#p.0)"><path fill="#000000" fill-opacity="0.0" d="m0 0l179.30971 0l0 100.0l-179.30971 0z" fill-rule="evenodd"/><path fill="#b7b7b7" d="m0 16.551512l0 0c0 -9.141148 7.4103646 -16.551512 16.551512 -16.551512l146.20406 0c4.38974 0 8.599686 1.7438151 11.70369 4.8478255c3.1040192 3.1040106 4.847824 7.313953 4.847824 11.703686l0 66.20406c0 9.141144 -7.4103546 16.551506 -16.551514 16.551506l-146.20406 0c-9.141148 0 -16.551512 -7.4103622 -16.551512 -16.551506z" fill-rule="evenodd"/><path fill="#000000" fill-opacity="0.0" d="m16.71916 11.805775l132.06299 0l0 63.275593l-132.06299 0z" fill-rule="evenodd"/><path fill="#ffffff" d="m50.883556 72.00577l3.234375 -15.249996l-3.375 -27.953125l5.59375 0l2.1875 20.859375l10.937496 -20.859375l5.65625 0l-15.234371 27.953125l-3.234375 15.249996l-5.765625 0zm19.041409 0l9.1875 -43.20312l16.750008 0l-0.953125 4.484375l-10.71875 0l-3.046875 14.296875l8.6875 0l-0.90625 4.265625l-8.687508 0l-3.359375 15.843746l10.828133 0l-0.921875 4.3125l-16.859383 0zm31.782646 0.484375q-3.734375 0 -5.875 -1.59375q-2.125 -1.609375 -2.8125 -4.4375q-0.671875 -2.8281212 -0.09375 -6.562496l5.625 -1.4375q-0.3125 2.296875 -0.21875 4.4375q0.109375 2.1249962 1.09375 3.4843712q1.0 1.359375 3.296875 1.359375q2.34375 0 3.828125 -1.296875q1.484375 -1.3125 2.0 -3.7656212q0.625 -2.9375 -0.328125 -4.71875q-0.953125 -1.796875 -2.609375 -3.609375l-5.890625 -6.390625q-1.71875 -1.875 -2.265625 -4.078125q-0.546875 -2.21875 0.140625 -5.46875q1.015625 -4.75 4.28125 -7.359375q3.28125 -2.609375 7.96875 -2.609375q2.5625 0 4.359375 0.671875q1.8125 0.65625 2.828125 2.046875q1.015625 1.375 1.34375 3.484375q0.328125 2.109375 -0.015625 4.9375l-5.421875 1.390625q0.296875 -2.140625 0.1875 -3.921875q-0.09375 -1.796875 -1.0625 -2.875q-0.96875 -1.09375 -3.21875 -1.09375q-2.234375 0 -3.734375 1.203125q-1.5 1.1875 -2.0 3.53125q-0.421875 1.984375 -0.03125 3.265625q0.390625 1.265625 1.609375 2.609375l5.9375 6.390625q2.0 2.140625 3.234375 5.109375q1.25 2.953125 0.375 7.0q-0.671875 3.2031212 -2.5 5.531246q-1.828125 2.3125 -4.421875 3.546875q-2.578125 1.21875 -5.609375 1.21875zm18.224167 -9.703121l5.421875 -33.984375l5.75 0l-9.15625 33.984375l-2.015625 0zm-3.765625 9.218746l1.25 -5.859375l5.75 0l-1.25 5.859375l-5.75 0z" fill-rule="nonzero"/></g></svg>