<svg version="1.1" viewBox="0.0 0.0 141.0 142.0" fill="none" stroke="none" stroke-linecap="square" stroke-miterlimit="10" xmlns:xlink="http://www.w3.org/1999/xlink" xmlns="http://www.w3.org/2000/svg"><clipPath id="p.0"><path d="m0 0l141.0 0l0 142.0l-141.0 0l0 -142.0z" clip-rule="nonzero"/></clipPath><g clip-path="url(#p.0)"><path fill="#000000" fill-opacity="0.0" d="m0 0l141.0 0l0 142.0l-141.0 0z" fill-rule="evenodd"/><path fill="#ffffff" d="m17.384514 64.18767l0 0c0 -30.484383 24.712471 -55.196854 55.196854 -55.196854l0 0c14.639114 0 28.67865 5.815366 39.030067 16.166782c10.351418 10.351418 16.166779 24.390953 16.166779 39.03007l0 0c0 30.484375 -24.712471 55.196846 -55.196846 55.196846l0 0c-30.484383 0 -55.196854 -24.712471 -55.196854 -55.196846z" fill-rule="evenodd"/><path fill="#000000" d="m29.250656 56.979004l0 0c0 -30.48438 24.712471 -55.196854 55.196854 -55.196854l0 0c14.639114 0 28.67865 5.815366 39.030067 16.166782c10.351418 10.351418 16.166786 24.390955 16.166786 39.030067l0 0c0 30.484375 -24.712479 55.196846 -55.196854 55.196846l0 0c-30.484383 0 -55.196854 -24.712471 -55.196854 -55.196846z" fill-rule="evenodd"/><path stroke="#000000" stroke-width="1.0" stroke-linejoin="round" stroke-linecap="butt" d="m29.250656 56.979004l0 0c0 -30.48438 24.712471 -55.196854 55.196854 -55.196854l0 0c14.639114 0 28.67865 5.815366 39.030067 16.166782c10.351418 10.351418 16.166786 24.390955 16.166786 39.030067l0 0c0 30.484375 -24.712479 55.196846 -55.196854 55.196846l0 0c-30.484383 0 -55.196854 -24.712471 -55.196854 -55.196846z" fill-rule="evenodd"/><path fill="#000000" fill-opacity="0.0" d="m27.895014 7.6194224l55.874016 0l0 46.866142l-55.874016 0z" fill-rule="evenodd"/><path fill="#ffffff" d="m49.36446 38.37942l3.21875 -15.171875q-0.03125 0.015625 -0.546875 0.125q-0.5 0.109375 -1.140625 0.234375q-0.625 0.109375 -1.125 0.203125q-0.5 0.09375 -0.53125 0.09375l0.40625 -1.84375q0.40625 -0.09375 0.9375 -0.25q0.546875 -0.15625 1.125 -0.375q0.59375 -0.234375 1.140625 -0.5625q0.5625 -0.34375 1.015625 -0.796875l1.828125 0l-3.90625 18.34375l-2.421875 0zm10.924988 0.203125q-1.578125 0 -2.4375 -0.703125q-0.859375 -0.703125 -1.078125 -1.921875q-0.21875 -1.21875 0.109375 -2.78125l1.6875 -7.921875q0.328125 -1.59375 1.0625 -2.8125q0.734375 -1.21875 1.890625 -1.890625q1.15625 -0.6875 2.7500038 -0.6875q1.578125 0 2.421875 0.6875q0.859375 0.671875 1.078125 1.890625q0.21875 1.21875 -0.109375 2.8125l-1.6875 7.921875q-0.34375 1.578125 -1.09375 2.8125q-0.75 1.21875 -1.8906288 1.90625q-1.140625 0.6875 -2.703125 0.6875zm0.421875 -2.0q0.859375 0 1.40625 -0.484375q0.546875 -0.5 0.875 -1.28125q0.34375 -0.78125 0.53125 -1.625l1.6875038 -7.953125q0.1875 -0.890625 0.1875 -1.671875q0.015625 -0.78125 -0.328125 -1.25q-0.34375 -0.46875 -1.2187538 -0.46875q-0.890625 0 -1.453125 0.46875q-0.546875 0.46875 -0.875 1.25q-0.3125 0.78125 -0.5 1.671875l-1.6875 7.953125q-0.1875 0.84375 -0.1875 1.625q0 0.78125 0.359375 1.28125q0.359375 0.484375 1.203125 0.484375z" fill-rule="nonzero"/><path fill="#000000" fill-opacity="0.0" d="m54.447517 2.8687663l60.0 0l0 104.566925l-60.0 0z" fill-rule="evenodd"/><path fill="#ffffff" d="m98.44752 41.212517l-24.609375 30.984375l21.0 0l0 -10.796875l3.671875 0l0 14.46875l-29.59375 0l0 -3.59375l24.53125 -30.875l-18.796875 0l0 9.8125l-3.609375 0l0 -13.46875l27.40625 0l0 3.46875z" fill-rule="nonzero"/></g></svg>